<svg class="" width="493" height="257" viewBox="0 0 493 257" fill="none" xmlns="http://www.w3.org/2000/svg"><g style="transform: none; transform-origin: 263px 81px;" transform-origin="263px 81px"><rect x="39" y="65" width="146.85664436448772px" height="32" rx="16" fill="#1F807B" style="fill:color(display-p3 0.1210 0.5025 0.4806)"></rect><g style="transform: translateX(-95.1434px); transform-origin: 313px 81px;" transform-origin="313px 81px"><path d="M313 61C324.046 61 333 69.9543 333 81C333 92.0457 324.046 101 313 101V61Z" fill="#1F807B" style="fill:color(display-p3 0.1210 0.5025 0.4806)"></path><path d="M313 101C301.954 101 293 92.0457 293 81C293 69.9543 301.954 61 313 61L313 101Z" fill="#63BBB6" style="fill:color(display-p3 0.3882 0.7333 0.7137)"></path></g><rect x="345" y="65" width="134.3575167266342px" height="32" rx="16" fill="#63BBB6" style="fill: color(display-p3 0.3882 0.7333 0.7137); transform: translateX(-95.1434px); transform-origin: 376.5px 81px;" transform-origin="376.50000190734863px 81px"></rect><rect x="424" y="65" width="86.78583890887806px" height="32" rx="16" fill="#63BBB6" style="fill: color(display-p3 0.3882 0.7333 0.7137); transform: translateX(-23.7858px); transform-origin: 455.5px 81px;" transform-origin="455.50000190734863px 81px"></rect></g><g style="transform: none; transform-origin: 345px 129px;" transform-origin="345px 129px"><rect x="107" y="113" width="163px" height="32" rx="16" fill="#63BBB6" style="fill:color(display-p3 0.3882 0.7333 0.7137)"></rect><rect x="186" y="113" width="101px" height="32" rx="16" fill="#1F807B" style="fill: color(display-p3 0.121 0.5025 0.4806); transform: translateX(100px); transform-origin: 261.5px 129px;" transform-origin="261.5px 129px"></rect><g style="transform: translateX(50px); transform-origin: 369px 129px;" transform-origin="369px 129px"><path d="M369 109C380.046 109 389 117.954 389 129C389 140.046 380.046 149 369 149V109Z" fill="#1F807B" style="fill:color(display-p3 0.1210 0.5025 0.4806)"></path><path d="M369 149C357.954 149 349 140.046 349 129C349 117.954 357.954 109 369 109L369 149Z" fill="#63BBB6" style="fill:color(display-p3 0.3882 0.7333 0.7137)"></path></g><rect x="401" y="113" width="182" height="32" rx="16" fill="#63BBB6" style="fill: color(display-p3 0.3882 0.7333 0.7137); transform: translateX(50px); transform-origin: 492px 129px;" transform-origin="492px 129px"></rect></g><g style="transform: none; transform-origin: 335.5px 177px;" transform-origin="335.50001525878906px 177px"><g style="transform: translateX(-30px); transform-origin: 199px 177px;" transform-origin="199px 177px"><path d="M199 157C210.046 157 219 165.954 219 177C219 188.046 210.046 197 199 197V157Z" fill="#1F807B" style="fill:color(display-p3 0.1210 0.5025 0.4806)"></path><path d="M199 197C187.954 197 179 188.046 179 177C179 165.954 187.954 157 199 157L199 197Z" fill="#63BBB6" style="fill:color(display-p3 0.3882 0.7333 0.7137)"></path></g><rect x="231" y="161" width="157px" height="32" rx="16" fill="#63BBB6" style="fill: color(display-p3 0.3882 0.7333 0.7137); transform: translateX(-25px); transform-origin: 322px 177px;" transform-origin="322px 177px"></rect><rect x="429" y="161" width="113px" height="32" rx="16" fill="#1F807B" style="fill: color(display-p3 0.121 0.5025 0.4806); transform: translateX(-50px); transform-origin: 460.5px 177px;" transform-origin="460.50003242492676px 177px"></rect></g></svg>