<svg viewBox="0 0 116 64" fill="none" xmlns="http://www.w3.org/2000/svg"><path fill-rule="evenodd" clip-rule="evenodd" d="M70.6025 49.2543H73.0219L72.9339 42.623H72.9779L76.4091 49.2543H79.6203V39.5256H77.2449L77.2889 46.1132H77.2449L73.9457 39.5256H70.6025V49.2543ZM83.2274 49.2543H85.8228V41.4451H88.2422V39.5256H80.808V41.4451H83.2274V49.2543ZM89.4299 49.2543H92.0253V45.4151H92.5532C93.5209 45.4151 93.8729 45.8514 94.4007 47.5092L94.9726 49.2543H97.6999L96.7322 46.593C96.2483 45.4151 96.2043 44.6735 95.3245 44.4554V44.4117C96.6002 44.1063 97.216 43.2338 97.216 41.9686C97.216 40.3108 95.8084 39.5256 94.0488 39.5256H89.3859L89.4299 49.2543ZM92.0253 41.3579H92.7291C93.7409 41.3579 94.6207 41.5324 94.6207 42.4485C94.6207 43.5392 93.5649 43.5828 92.7291 43.5828H92.0253V41.3579ZM8.22553 49.2543H10.8649L11.6567 47.1602H15.3518L16.0996 49.2543H18.9149L15.1319 39.5256H11.9206C11.9646 39.5256 8.22553 49.2543 8.22553 49.2543ZM14.736 45.3279H12.2725L13.5482 41.5324H13.5922L14.736 45.3279ZM-0.000488281 49.2543H4.13451C5.89409 49.2543 7.96159 48.7744 7.96159 46.4622C7.96159 45.2843 7.30175 44.5862 5.98207 44.3245V44.2808C7.0818 43.9318 7.69765 43.2338 7.69765 42.0123C7.69765 40.3545 6.33398 39.5256 4.53042 39.5256H-0.000488281V49.2543ZM2.59489 45.1097H3.38669C4.26648 45.1097 5.32223 45.197 5.32223 46.2877C5.32223 47.2911 4.31047 47.4219 3.38669 47.4219H2.59489V45.1097ZM2.59489 41.3579H3.3427C4.22249 41.3579 5.05829 41.4451 5.05829 42.3177C5.05829 43.1466 4.1785 43.3647 3.29872 43.3647H2.59489V41.3579ZM19.5308 49.2543H21.9502L21.8622 42.623H21.9062L25.3374 49.2543H28.5926V39.5256H26.2172L26.2612 46.1132H26.2172L22.874 39.5256H19.5308V49.2543ZM38.1383 46.9857C37.3465 47.2911 36.5107 47.4656 35.6749 47.5092C33.7834 47.5092 32.4197 46.3313 32.4197 44.4554C32.4197 42.623 33.6514 41.3142 35.4989 41.3142C36.3787 41.3142 37.2585 41.5324 38.0503 42.0123L38.2703 39.9182C37.3465 39.6128 36.3347 39.4383 35.367 39.3947C32.1557 39.3947 29.7363 41.0961 29.7363 44.4554C29.7363 48.12 32.7716 49.4288 35.367 49.4288C36.3347 49.4288 37.3465 49.2979 38.2703 49.0361L38.1383 46.9857ZM38.5342 44.3681C38.5342 47.4656 40.2498 49.3851 43.461 49.3851C46.6722 49.3851 48.3878 47.4656 48.3878 44.3681C48.3878 41.2706 46.7162 39.3511 43.461 39.3511C40.2058 39.3511 38.5342 41.2706 38.5342 44.3681ZM41.2176 44.3681C41.2176 42.6667 41.8334 41.2706 43.417 41.2706C45.0006 41.2706 45.6165 42.7103 45.6165 44.3681C45.6165 45.9823 45.0006 47.4656 43.417 47.4656C41.8334 47.4656 41.2176 45.9823 41.2176 44.3681ZM60.8808 46.9857C60.089 47.2911 59.2532 47.4656 58.4174 47.5092C56.5259 47.5092 55.1622 46.3313 55.1622 44.4554C55.1622 42.623 56.3939 41.3142 58.2414 41.3142C59.1212 41.3142 60.001 41.5324 60.7928 42.0123L61.0128 39.9182C60.045 39.6128 59.0773 39.4383 58.0655 39.3947C54.8543 39.3947 52.4349 41.0961 52.4349 44.4554C52.4349 48.12 55.4701 49.4288 58.0655 49.4288C59.0333 49.4288 60.045 49.2979 60.9688 49.0361L60.8808 46.9857ZM62.2005 49.2543H69.2828V47.4219H64.8399V45.2406H68.8869V43.4083H64.8399V41.4015H69.1508V39.5692H62.2445L62.2005 49.2543ZM98.0079 49.2543H100.647L101.439 47.1602H105.134L105.882 49.2543H108.741L104.958 39.5256H101.747L98.0079 49.2543ZM104.474 45.3279H102.011L103.287 41.5324H103.331L104.474 45.3279ZM109.313 49.2543H115.956V47.3347H111.908V39.5256H109.313V49.2543ZM51.5551 34.6394H61.3647L64.444 31.5855H54.6343V26.1322H56.4819L59.5611 23.0784H52.1709V15.7928L49.0917 18.8466V20.6789H43.593V10.9502L40.5137 14.0041V23.7328H46.0564V29.1861H51.5991V34.6394H51.5551ZM62.5964 12.7825V5.49693L65.6757 2.44308V9.77232H73.0219L69.9426 12.8262L62.5964 12.7825ZM54.6343 2.44308H52.1709V9.7287H59.5171L56.4379 12.7825H49.0917V10.9502H46.0124V8.50716L54.6343 0V2.44308ZM73.0219 23.122V20.6789H75.4853L66.8634 29.1861H64.4V26.1322H62.5524V18.8466L65.6317 15.7928V23.122H73.0219ZM21.7303 63.8255H25.2934C28.6366 63.8255 31.1 62.5603 31.1 58.9393C31.1 55.1875 28.7246 54.0968 25.2934 54.0968H21.7303V63.8255ZM24.3256 56.0164H25.3374C27.2289 56.0164 28.3727 57.0198 28.3727 58.9393C28.3727 60.8589 27.2729 61.8623 25.3374 61.8623H24.3256C24.3256 61.9059 24.3256 56.0164 24.3256 56.0164ZM31.6719 58.983C31.6719 62.0804 33.3875 64 36.5987 64C39.8099 64 41.5255 62.0804 41.5255 58.983C41.5255 55.8855 39.8539 53.9659 36.5987 53.9659C33.3435 53.9659 31.6719 55.8419 31.6719 58.983ZM34.3552 58.983C34.3552 57.2815 34.9711 55.8855 36.5547 55.8855C38.1383 55.8855 38.7542 57.3252 38.7542 58.983C38.7542 60.5971 38.1383 62.0804 36.5547 62.0804C34.9711 62.0804 34.3552 60.5535 34.3552 58.983ZM46.0124 63.8255H50.1474C51.907 63.8255 53.9745 63.3456 53.9745 61.0334C53.9745 59.8555 53.3146 59.1575 51.995 58.8957V58.8521C53.0947 58.5031 53.7105 57.805 53.7105 56.5835C53.7105 54.9257 52.3469 54.0968 50.5433 54.0968H46.0124V63.8255ZM48.6518 59.681H49.4436C50.3234 59.681 51.3791 59.7682 51.3791 60.8153C51.3791 61.8187 50.3674 61.9496 49.4436 61.9496H48.6518V59.681ZM48.6518 55.9291H49.3996C50.2794 55.9291 51.1152 56.0164 51.1152 56.8889C51.1152 57.7178 50.2354 57.9359 49.3556 57.9359H48.6078L48.6518 55.9291ZM55.1622 63.8255H57.7576V59.9864H58.2854C59.2532 59.9864 59.6051 60.4226 60.133 62.0804L60.7049 63.8255H63.4322L62.4644 61.1643C61.9805 59.9864 61.9366 59.2447 61.0568 59.0266V58.983C62.3325 58.6776 62.9483 57.8487 62.9483 56.5399C62.9483 54.8821 61.5407 54.0968 59.7811 54.0968H55.1182L55.1622 63.8255ZM57.8016 55.9291H58.5054C59.5171 55.9291 60.3969 56.1036 60.3969 57.0198C60.3969 58.1104 59.3412 58.1541 58.5054 58.1541H57.8016V55.9291ZM63.7401 63.8255H66.3795L67.1713 61.7314H70.8224L71.5702 63.8255H74.4295L70.6465 54.0968H67.4352L63.7401 63.8255ZM70.2506 59.8991H67.7872L69.0628 56.1036H69.1068L70.2506 59.8991ZM83.2274 63.8255H85.8228V54.0968H83.2274V63.8255ZM87.6264 63.8255H94.2688V61.9059H90.2217V54.0968H87.6264V63.8255ZM74.8255 63.5637C75.7932 63.8691 76.761 64 77.7287 64C79.9282 64 82.0397 63.302 82.0397 60.7716C82.0397 57.2815 77.4208 58.3286 77.4208 56.758C77.4208 55.9291 78.5206 55.8419 79.1804 55.8419C79.9282 55.8419 80.676 55.9727 81.3799 56.2781L81.5558 54.2713C80.72 54.0095 79.8842 53.8787 79.0044 53.9223C77.0249 53.9223 74.7375 54.5767 74.7375 56.8889C74.7375 60.4226 79.3564 59.2883 79.3564 61.077C79.3564 61.8623 78.5645 62.0368 77.7287 62.0368C76.805 62.0368 75.8812 61.8187 75.0454 61.3824L74.8255 63.5637Z" fill="currentColor"/></svg>