<svg width="139" height="42" viewBox="0 0 139 42" fill="none" xmlns="http://www.w3.org/2000/svg"><path fill-rule="evenodd" clip-rule="evenodd" d="M4.96038 33.0512C3.70141 30.3741 2.99819 27.3874 2.99819 24.2376C2.99819 12.7225 12.3961 3.38776 23.9891 3.38776C30.4442 3.38776 36.2186 6.28215 40.0692 10.8354L42.3663 8.92086C37.9657 3.71707 31.3664 0.40918 23.9891 0.40918C10.74 0.40918 -0.000488281 11.0775 -0.000488281 24.2376C-0.000488281 27.8374 0.80316 31.2508 2.242 34.3103L4.96038 33.0512Z" fill="currentColor"/><path fill-rule="evenodd" clip-rule="evenodd" d="M23.9891 38.3861C16.1225 38.3861 9.74531 32.0518 9.74531 24.238C9.74531 16.4242 16.1225 10.0899 23.9891 10.0899C28.3694 10.0899 32.2871 12.0544 34.9 15.1442L37.1977 13.2291C34.0348 9.4889 29.2915 7.11133 23.9891 7.11133C14.4663 7.11133 6.74658 14.7792 6.74658 24.238C6.74658 33.6968 14.4663 41.3647 23.9891 41.3647V38.3861Z" fill="currentColor"/><path fill-rule="evenodd" clip-rule="evenodd" d="M29.1576 28.5448C27.92 30.0084 26.0642 30.9389 23.9893 30.9389C20.263 30.9389 17.2422 27.9385 17.2422 24.2372C17.2422 20.5359 20.263 17.5354 23.9893 17.5354C26.0642 17.5354 27.92 18.466 29.1576 19.9296L31.7418 17.7758C29.8853 15.5805 27.1016 14.1846 23.9893 14.1846C18.3998 14.1846 13.8687 18.6853 13.8687 24.2372C13.8687 29.7891 18.3998 34.2898 23.9893 34.2898C26.8416 34.2898 29.4173 33.1169 31.2568 31.2312L29.1576 28.5448Z" fill="currentColor"/><path fill-rule="evenodd" clip-rule="evenodd" d="M36.5704 23.8904C37.2465 23.3088 38.0713 23.0173 39.045 23.0173C39.5678 23.0173 40.0228 23.1026 40.4109 23.2726C40.7983 23.4431 41.1182 23.6713 41.3708 23.9576C41.6232 24.2443 41.8078 24.5754 41.9254 24.9516C42.0424 25.3276 42.1012 25.7218 42.1012 26.1335H35.4481C35.5199 25.2203 35.8943 24.4726 36.5704 23.8904ZM42.588 29.9483C42.2271 30.4679 41.7673 30.8751 41.2087 31.1704C40.6495 31.466 39.9645 31.6138 39.1532 31.6138C38.6842 31.6138 38.2336 31.5332 37.801 31.372C37.3682 31.2108 36.9803 30.9916 36.638 30.7138C36.2953 30.4364 36.0202 30.1051 35.8131 29.7199C35.6057 29.3349 35.484 28.9098 35.4481 28.4439H45.3196C45.3373 28.3008 45.3467 28.1576 45.3467 28.014V27.5843C45.3467 26.4203 45.1886 25.404 44.8733 24.5351C44.5577 23.6667 44.1202 22.9414 43.5616 22.3592C43.0026 21.7775 42.3399 21.3384 41.5738 21.0429C40.8072 20.7474 39.9734 20.5996 39.0721 20.5996C38.0984 20.5996 37.1924 20.7655 36.3541 21.0967C35.5157 21.4282 34.7897 21.8938 34.1768 22.4936C33.5637 23.0938 33.0815 23.8191 32.73 24.6694C32.3783 25.5203 32.2026 26.4652 32.2026 27.5036C32.2026 28.5605 32.3783 29.5049 32.73 30.3377C33.0815 31.1704 33.5684 31.8735 34.1904 32.4466C34.8124 33.0199 35.5469 33.4631 36.3945 33.7763C37.242 34.0894 38.1704 34.2465 39.1802 34.2465C41.3597 34.2465 43.0761 33.5567 44.3305 32.1782L42.588 29.9483Z" fill="currentColor"/><path fill-rule="evenodd" clip-rule="evenodd" d="M47.3999 20.9758H50.483V23.0442H50.5372C50.8254 22.3995 51.3257 21.8311 52.0381 21.3384C52.7502 20.8461 53.5933 20.5996 54.5669 20.5996C55.4142 20.5996 56.1397 20.7474 56.744 21.043C57.348 21.3384 57.8436 21.728 58.2314 22.2114C58.619 22.6951 58.9031 23.2504 59.0834 23.877C59.2634 24.5041 59.3539 25.1488 59.3539 25.8112V33.8703H56.1084V26.7246C56.1084 26.3485 56.0814 25.9547 56.0273 25.5425C55.9732 25.1309 55.8558 24.7593 55.6758 24.4278C55.4953 24.0966 55.2472 23.8233 54.9319 23.6085C54.6163 23.3935 54.197 23.286 53.6744 23.286C53.1513 23.286 52.7007 23.3893 52.3222 23.595C51.9435 23.801 51.6324 24.0651 51.3891 24.3875C51.1457 24.7098 50.9606 25.0818 50.8345 25.5022C50.7083 25.9233 50.6453 26.3485 50.6453 26.7784V33.8703H47.3999V20.9758Z" fill="currentColor"/><path fill-rule="evenodd" clip-rule="evenodd" d="M60.7329 23.5543V20.9753H63.0047V17.2412H66.196V20.9753H69.4415V23.5543H66.196V29.5448C66.196 30.1181 66.2996 30.5925 66.5071 30.9686C66.7142 31.3447 67.1785 31.5327 67.8999 31.5327C68.1163 31.5327 68.3504 31.5105 68.6031 31.4656C68.8554 31.4211 69.0806 31.3539 69.2793 31.264L69.3874 33.7892C69.0988 33.8967 68.756 33.9815 68.3597 34.0445C67.9629 34.107 67.5843 34.1385 67.2238 34.1385C66.3583 34.1385 65.6552 34.0177 65.1143 33.7758C64.5733 33.534 64.1448 33.2029 63.8296 32.7818C63.514 32.3614 63.2976 31.8777 63.1805 31.3312C63.063 30.7852 63.0047 30.1987 63.0047 29.5716V23.5543H60.7329Z" fill="currentColor"/><path fill-rule="evenodd" clip-rule="evenodd" d="M71.3896 20.9758H74.4998V23.1248H74.5539C74.9142 22.3726 75.4195 21.7641 76.0685 21.2981C76.7175 20.8326 77.4747 20.5996 78.3402 20.5996C78.4661 20.5996 78.6013 20.6042 78.7459 20.613C78.89 20.6223 79.0163 20.6446 79.1245 20.6802V23.6353C78.908 23.5816 78.723 23.5459 78.5701 23.5279C78.4166 23.5101 78.2679 23.501 78.1237 23.501C77.3843 23.501 76.7893 23.6353 76.339 23.9038C75.888 24.1725 75.5364 24.4948 75.2841 24.871C75.0313 25.2472 74.8603 25.6324 74.7703 26.0262C74.6798 26.4203 74.635 26.7337 74.635 26.9663V33.8703H71.3896V20.9758Z" fill="currentColor"/><path fill-rule="evenodd" clip-rule="evenodd" d="M80.6112 33.8705H83.8566V20.976H80.6112V33.8705ZM80.1514 16.5972C80.1514 16.078 80.3449 15.6259 80.7327 15.2406C81.1203 14.8556 81.6117 14.6631 82.2069 14.6631C82.8018 14.6631 83.3021 14.8468 83.7078 15.2138C84.1135 15.581 84.3163 16.0423 84.3163 16.5972C84.3163 17.1524 84.1135 17.6139 83.7078 17.9806C83.3021 18.348 82.8018 18.5314 82.2069 18.5314C81.6117 18.5314 81.1203 18.3392 80.7327 17.9538C80.3449 17.5689 80.1514 17.1168 80.1514 16.5972Z" fill="currentColor"/><path fill-rule="evenodd" clip-rule="evenodd" d="M88.0495 23.5543H85.5884V20.9754H88.0495V20.0111C88.0495 19.2413 88.1349 18.5026 88.3065 17.7949C88.4777 17.0876 88.7662 16.465 89.172 15.9278C89.5776 15.3906 90.1139 14.9653 90.7812 14.6518C91.4479 14.3387 92.2863 14.1816 93.2964 14.1816C93.6567 14.1816 93.959 14.1951 94.2024 14.2219C94.4457 14.2488 94.6934 14.2984 94.9462 14.3697L94.7297 17.1098C94.5493 17.0561 94.3554 17.0117 94.1483 16.9755C93.9408 16.9398 93.7197 16.9218 93.4856 16.9218C93.0166 16.9218 92.638 17.0117 92.3498 17.1905C92.0611 17.3696 91.8402 17.6026 91.6872 17.8889C91.5337 18.1755 91.4302 18.4891 91.3761 18.8292C91.322 19.1695 91.2949 19.5007 91.2949 19.823V20.9754H94.2969V23.5543H91.2949V33.8699H88.0495V23.5543Z" fill="currentColor"/><path fill-rule="evenodd" clip-rule="evenodd" d="M107.874 33.8701H104.791V31.8017H104.737C104.449 32.4464 103.948 33.0151 103.236 33.5074C102.524 33.9998 101.681 34.2463 100.707 34.2463C99.8592 34.2463 99.1336 34.0985 98.5298 33.8029C97.9255 33.5074 97.4298 33.1179 97.0422 32.6345C96.6543 32.1508 96.3703 31.596 96.1903 30.9689C96.0099 30.3421 95.9199 29.6974 95.9199 29.0347V20.9756H99.1654V28.1213C99.1654 28.4974 99.1924 28.8915 99.2465 29.3034C99.3006 29.7155 99.4176 30.087 99.598 30.4181C99.778 30.7498 100.027 31.0225 100.342 31.2374C100.657 31.4524 101.077 31.5599 101.6 31.5599C102.104 31.5599 102.551 31.457 102.939 31.2509C103.326 31.0452 103.642 30.7809 103.885 30.4584C104.129 30.1361 104.313 29.7646 104.44 29.3437C104.566 28.923 104.629 28.4974 104.629 28.0675V20.9756H107.874V33.8701Z" fill="currentColor"/><path fill-rule="evenodd" clip-rule="evenodd" d="M120.394 28.8687C120.214 29.3597 119.957 29.7925 119.623 30.1674C119.289 30.5421 118.884 30.841 118.406 31.0642C117.928 31.2876 117.392 31.3988 116.797 31.3988C116.22 31.3988 115.702 31.2831 115.242 31.0508C114.782 30.8188 114.394 30.5107 114.079 30.127C113.763 29.7433 113.52 29.3102 113.349 28.8283C113.177 28.3465 113.092 27.847 113.092 27.329C113.092 26.7582 113.177 26.2226 113.349 25.7226C113.52 25.2227 113.763 24.7899 114.079 24.424C114.394 24.0579 114.782 23.7679 115.242 23.5537C115.702 23.3397 116.229 23.2323 116.824 23.2323C117.419 23.2323 117.951 23.3397 118.42 23.5537C118.889 23.7679 119.289 24.0625 119.623 24.4374C119.957 24.8123 120.214 25.2495 120.394 25.749C120.574 26.249 120.665 26.7758 120.665 27.329C120.665 27.8646 120.574 28.378 120.394 28.8687ZM120.665 20.9758V22.9098H120.61C120.141 22.122 119.511 21.5398 118.717 21.1639C117.924 20.7877 117.068 20.5996 116.148 20.5996C115.174 20.5996 114.295 20.7789 113.511 21.137C112.727 21.4954 112.06 21.9789 111.51 22.5876C110.96 23.1966 110.536 23.9131 110.239 24.7366C109.941 25.5606 109.792 26.4383 109.792 27.3693C109.792 28.2827 109.945 29.147 110.252 29.9616C110.559 30.7768 110.987 31.4887 111.537 32.0972C112.087 32.7063 112.758 33.1899 113.552 33.5479C114.345 33.9059 115.228 34.0852 116.202 34.0852C117.104 34.0852 117.92 33.9178 118.65 33.5832C119.38 33.2486 119.979 32.7647 120.448 32.1313H120.502V33.0749C120.502 33.7222 120.435 34.3152 120.3 34.8545C120.164 35.3935 119.939 35.8611 119.623 36.2565C119.308 36.6519 118.884 36.9617 118.352 37.1867C117.82 37.4112 117.167 37.5238 116.392 37.5238C115.58 37.5238 114.778 37.3667 113.984 37.0536C113.212 36.7484 112.516 36.3113 111.898 35.743L109.982 38.1954C110.396 38.5354 110.865 38.8401 111.388 39.1087C111.911 39.3773 112.456 39.601 113.024 39.7803C113.592 39.9591 114.169 40.0935 114.755 40.1832C115.341 40.2726 115.895 40.3175 116.418 40.3175C117.68 40.3175 118.772 40.1383 119.691 39.7803C120.61 39.4218 121.372 38.916 121.976 38.2625C122.58 37.6086 123.027 36.8118 123.315 35.8717C123.603 34.9314 123.748 33.8791 123.748 32.7151V20.9758H120.665Z" fill="currentColor"/><path fill-rule="evenodd" clip-rule="evenodd" d="M130.111 23.8904C130.787 23.3088 131.612 23.0173 132.585 23.0173C133.108 23.0173 133.563 23.1026 133.951 23.2726C134.339 23.4431 134.658 23.6713 134.911 23.9576C135.163 24.2443 135.348 24.5754 135.466 24.9516C135.583 25.3276 135.641 25.7218 135.641 26.1335H128.988C129.06 25.2203 129.435 24.4726 130.111 23.8904ZM136.128 29.9483C135.767 30.4679 135.308 30.8751 134.749 31.1704C134.19 31.466 133.505 31.6138 132.693 31.6138C132.224 31.6138 131.774 31.5332 131.341 31.372C130.908 31.2108 130.521 30.9916 130.178 30.7138C129.836 30.4364 129.56 30.1051 129.353 29.7199C129.146 29.3349 129.024 28.9098 128.988 28.4439H138.86C138.878 28.3008 138.887 28.1576 138.887 28.014V27.5843C138.887 26.4203 138.729 25.404 138.414 24.5351C138.098 23.6667 137.66 22.9414 137.102 22.3592C136.543 21.7775 135.88 21.3384 135.114 21.0429C134.347 20.7474 133.514 20.5996 132.612 20.5996C131.639 20.5996 130.733 20.7655 129.894 21.0967C129.056 21.4282 128.33 21.8938 127.717 22.4936C127.104 23.0938 126.622 23.8191 126.27 24.6694C125.919 25.5203 125.743 26.4652 125.743 27.5036C125.743 28.5605 125.919 29.5049 126.27 30.3377C126.622 31.1704 127.109 31.8735 127.731 32.4466C128.353 33.0199 129.087 33.4631 129.935 33.7763C130.782 34.0894 131.711 34.2465 132.721 34.2465C134.9 34.2465 136.616 33.5567 137.871 32.1782L136.128 29.9483Z" fill="currentColor"/></svg>