<svg width="170" height="36" viewBox="0 0 170 36" fill="none" xmlns="http://www.w3.org/2000/svg"><path d="M49.7835 0.00109863C45.2761 0.00109863 42.7046 2.54148 42.7046 6.74705C42.7046 10.8208 45.277 13.4504 49.6959 13.4504C53.7634 13.4504 56.1369 11.37 56.533 8.06239H53.4551C53.1686 9.94664 52.0038 11.0855 49.7178 11.0855C47.1901 11.0855 45.695 9.61859 45.695 6.72628C45.695 3.83397 47.0358 2.36706 49.7178 2.36706C51.9162 2.36706 53.0592 3.46128 53.3665 5.36734H56.4225C56.0266 2.16982 53.9385 0.00109863 49.7835 0.00109863Z" fill="currentColor"/><path fill-rule="evenodd" clip-rule="evenodd" d="M64.4016 13.4504C68.71 13.4504 71.3481 10.8436 71.3481 6.68164C71.3481 2.34526 68.4682 0.00109863 64.4016 0.00109863C60.0933 0.00109863 57.4551 2.4335 57.4551 6.76988C57.4551 11.1063 60.3349 13.4504 64.4016 13.4504ZM64.4016 2.36602C66.7761 2.36602 68.3588 3.74573 68.3588 6.76885C68.3588 9.70372 66.9074 11.0834 64.4016 11.0834C62.0272 11.0834 60.4444 9.61548 60.4444 6.6806C60.4444 3.74573 61.8959 2.36602 64.4016 2.36602Z" fill="currentColor"/><path d="M75.8982 0.219051H72.9526V13.2313H75.8982V4.40386C76.6682 2.93591 77.7226 2.25695 79.4157 2.25695C81.5257 2.25695 82.603 3.22141 82.603 5.32368V13.2303H85.5486V4.90633C85.5486 1.79601 83.8344 0 80.8005 0C78.1186 0 76.6453 1.38075 75.8982 3.68026V0.219051Z" fill="currentColor"/><path d="M89.8577 9.24376H86.7798C87.1091 11.8506 89.0668 13.4504 93.2877 13.4504C97.5084 13.4504 99.2891 11.7198 99.2891 9.39845C99.2891 7.42802 98.3441 6.06908 95.4861 5.74101L91.5508 5.28111C90.386 5.14926 89.9682 4.68936 89.9682 3.92319C89.9682 3.00339 90.6715 2.30263 92.9137 2.30263C95.1559 2.30263 95.9247 3.04698 96.1008 4.18585H99.1569C98.7827 1.71088 97.1771 0.0020752 93.0012 0.0020752C88.8252 0.0020752 87.1321 1.77629 87.1321 4.09761C87.1321 6.13447 88.2094 7.36157 91.0893 7.68964L94.8703 8.12774C96.1238 8.28139 96.453 8.8067 96.453 9.50746C96.453 10.4491 95.5956 11.1498 93.3534 11.1498C91.1112 11.1498 90.0995 10.5363 89.8577 9.24376Z" fill="currentColor"/><path fill-rule="evenodd" clip-rule="evenodd" d="M100.41 6.76879C100.41 10.5799 102.784 13.4493 107.225 13.4493C110.94 13.4493 113.226 11.6969 113.886 9.02471H110.874C110.434 10.3172 109.313 11.0834 107.312 11.0834C105.092 11.0834 103.664 9.79087 103.4 7.46955H113.973C113.995 2.91307 112.017 0 107.247 0C102.959 0 100.41 2.73866 100.41 6.76879ZM110.874 5.47628H103.444C103.818 3.39581 105.181 2.30056 107.225 2.30056C109.555 2.30056 110.676 3.54843 110.874 5.47628Z" fill="currentColor"/><path d="M118.369 0.219051H115.423V13.2313H118.369V4.40386C119.139 2.93591 120.193 2.25695 121.886 2.25695C123.996 2.25695 125.074 3.22141 125.074 5.32368V13.2303H128.019V4.90633C128.019 1.79601 126.305 0 123.271 0C120.589 0 119.116 1.38075 118.369 3.68026V0.219051Z" fill="currentColor"/><path d="M132.328 9.24376H129.25C129.58 11.8506 131.538 13.4504 135.758 13.4504C139.979 13.4504 141.76 11.7198 141.76 9.39845C141.76 7.42802 140.815 6.06908 137.957 5.74101L134.022 5.28111C132.857 5.14926 132.439 4.68936 132.439 3.92319C132.439 3.00339 133.142 2.30263 135.384 2.30263C137.627 2.30263 138.396 3.04698 138.572 4.18585H141.628C141.254 1.71088 139.648 0.0020752 135.472 0.0020752C131.296 0.0020752 129.603 1.77629 129.603 4.09761C129.603 6.13447 130.68 7.36157 133.56 7.68964L137.341 8.12774C138.595 8.28139 138.924 8.8067 138.924 9.50746C138.924 10.4491 138.066 11.1498 135.824 11.1498C133.582 11.1498 132.57 10.5363 132.328 9.24376Z" fill="currentColor"/><path d="M150.331 16.4289L155.805 0.220093H152.726L148.945 11.6097L145.01 0.220093H141.757L146.043 11.807H148.879L148.154 14.0193H143.186V16.4289H150.331Z" fill="currentColor"/><path d="M158.838 9.24486H155.76C156.09 11.8517 158.047 13.4515 162.268 13.4515C166.489 13.4515 168.27 11.7209 168.27 9.39953C168.27 7.42911 167.324 6.07016 164.466 5.74211L160.531 5.28221C159.366 5.15036 158.948 4.69046 158.948 3.92429C158.948 3.00449 159.652 2.30374 161.894 2.30374C164.136 2.30374 164.905 3.04809 165.081 4.18695H168.137C167.763 1.71198 166.158 0.00317383 161.982 0.00317383C157.805 0.00317383 156.112 1.77738 156.112 4.09871C156.112 6.13558 157.19 7.36267 160.07 7.69074L163.851 8.12884C165.104 8.28249 165.433 8.80778 165.433 9.50854C165.433 10.4502 164.576 11.1509 162.334 11.1509C160.091 11.1509 159.08 10.5374 158.838 9.24486Z" fill="currentColor"/><path fill-rule="evenodd" clip-rule="evenodd" d="M35.9093 18.1105V13.2311V0.219849H22.8509H17.9539C8.03793 0.219849 -0.000488281 8.22923 -0.000488281 18.1094C-0.000488281 27.9896 8.03896 36 17.9549 36C27.8708 36 35.9093 27.9905 35.9093 18.1105ZM13.8737 9.16462L22.8509 0.219849V13.2311H35.9093L26.93 22.1799H13.8737V9.16462Z" fill="currentColor"/></svg>