<svg viewBox="0 0 166 26" fill="none" xmlns="http://www.w3.org/2000/svg"><path d="M89.472 5.23267V10.751H89.5215C90.4342 9.55267 91.7375 8.95322 93.4312 8.95322C94.187 8.95322 94.9022 9.07655 95.5752 9.32267C96.2487 9.56878 96.8475 9.93989 97.3702 10.4366C97.8919 10.9327 98.301 11.5527 98.5958 12.2971C98.8918 13.041 99.0387 13.9004 99.0387 14.8749C99.0387 15.9732 98.8372 16.9938 98.4321 17.9366C98.0269 18.8799 97.3967 19.6349 96.5419 20.2032C95.6866 20.771 94.6253 21.056 93.3575 21.056C91.527 21.056 90.2238 20.4732 89.4467 19.3088H89.3977V20.7543H85.9213V5.23267H89.472ZM76.1333 8.62917C82.8887 8.62917 82.3108 15.8792 82.3108 15.8792H73.0632C73.4374 17.3219 74.6804 18.2703 76.3933 18.2703C78.4568 18.2703 79.5687 17.0247 79.5687 17.0247L81.532 19.0292C80.5213 20.0319 79.1641 20.9481 76.3635 20.9481C72.0328 20.9481 69.7235 18.0842 69.7235 15.0486C69.7235 12.0131 71.4561 8.62917 76.1333 8.62917ZM160.25 8.62389C163.156 8.62389 165.004 9.73111 165.004 9.73111L163.81 12.2894C159.942 10.285 158.19 11.6978 158.19 12.4039C158.19 13.1106 158.883 13.1678 161.577 13.6644C164.272 14.1611 165.524 15.2867 165.524 17.1006C165.524 18.9144 163.964 20.9194 160.154 20.9194C156.342 20.9194 154.61 19.6972 154.61 19.6972L155.765 17.1578C158.749 19.0483 162.135 18.4367 162.135 17.3111C162.135 16.4661 161.01 16.287 159.797 16.1456L159.275 16.0854C159.044 16.058 158.814 16.0288 158.594 15.9933C157.055 15.745 154.765 14.9244 154.765 12.5567C154.765 10.1894 157.344 8.62389 160.25 8.62389ZM143.234 4.424V13.7984L148.286 8.94844H152.415L147.408 13.7551L152.905 20.9196H148.806L145.046 16.0218L143.234 17.7612V20.9196H139.856V4.424H143.234ZM131.127 8.548C133.523 8.548 135.621 9.73967 136.781 11.5258L133.925 13.2036C133.39 12.188 132.337 11.4974 131.127 11.4974C129.373 11.4974 127.951 12.9463 127.951 14.7336C127.951 16.5202 129.373 17.9697 131.127 17.9697C132.281 17.9697 133.289 17.3402 133.845 16.4013L136.713 18.0402C135.541 19.7702 133.479 20.9197 131.127 20.9197C127.476 20.9197 124.516 18.1497 124.516 14.7336C124.516 11.3169 127.476 8.548 131.127 8.548ZM115.429 8.54744C119.08 8.54744 122.041 11.3174 122.041 14.733C122.041 18.1497 119.08 20.9191 115.429 20.9191C111.777 20.9191 108.818 18.1497 108.818 14.733C108.818 11.3174 111.777 8.54744 115.429 8.54744ZM55.4013 8.89133V20.8052H51.7346V8.89133H55.4013ZM48.4422 5.28278V8.26111H40.2429V12.2133H47.4889V15.1633H40.2429V20.805H36.5757V5.28278H48.4422ZM63.2264 10.3801C63.2264 10.3801 64.5258 8.34678 67.2104 8.66233V11.984C67.2104 11.984 64.2945 11.2396 63.2264 14.2468V20.8046H59.7331V8.89122H63.0728L63.2264 10.2946V10.3801ZM105.323 4.36633V20.7186H101.627V4.36633H105.323ZM92.3632 11.571C90.3369 11.571 89.3234 12.8032 89.3234 15.2688C89.3234 16.2032 89.5845 16.9871 90.1062 17.6204C90.6284 18.2532 91.4151 18.5699 92.4679 18.5699C93.1696 18.5699 93.739 18.3871 94.1768 18.0216C94.6141 17.6554 94.9241 17.2082 95.1076 16.6788C95.2916 16.1499 95.3833 15.6216 95.3833 15.0943C95.3833 14.081 95.143 13.2416 94.6625 12.5732C94.1819 11.9049 93.4149 11.571 92.3632 11.571ZM115.429 11.4974C113.674 11.4974 112.253 12.9458 112.253 14.733C112.253 16.5208 113.674 17.9697 115.429 17.9697C117.183 17.9697 118.604 16.5208 118.604 14.733C118.604 12.9458 117.183 11.4974 115.429 11.4974ZM76.1907 11.2253C74.4041 11.2253 73.4109 12.3258 73.0755 13.7597H79.0634C79.0341 13.3869 78.4427 11.2253 76.1907 11.2253ZM53.568 3.27783C54.7576 3.27783 55.7232 4.16283 55.7232 5.25394C55.7232 6.34505 54.7576 7.23005 53.568 7.23005C52.3779 7.23005 51.4123 6.34505 51.4123 5.25394C51.4123 4.16283 52.3779 3.27783 53.568 3.27783Z" fill="currentColor"/><path d="M24.3215 0.5C24.8738 0.5 25.3215 0.947715 25.3215 1.5V24.5C25.3215 25.0523 24.8738 25.5 24.3215 25.5H0.999512C0.447227 25.5 -0.000488281 25.0523 -0.000488281 24.5V1.5C-0.000488281 0.947715 0.447227 0.5 0.999512 0.5H24.3215ZM12.6605 7.44444L5.62657 18.5556H19.6944L12.6605 7.44444Z" fill="currentColor"/></svg>