<svg width="243" height="34" viewBox="0 0 243 34" fill="none" xmlns="http://www.w3.org/2000/svg"><path d="M71.0518 23.0563C71.5965 23.2699 72.4037 23.4074 73.4736 23.4709V23.9173H61.3997V23.4709C62.4673 23.4074 63.2767 23.2699 63.8214 23.0563C64.3661 22.8447 64.7436 22.5041 64.9498 22.0345C65.1559 21.567 65.2601 20.8752 65.2601 19.9613V5.73239H65.1625L56.8839 24.3319H56.7863L47.9175 5.79797H47.8198V19.9613C47.8198 20.8752 47.9283 21.567 48.1475 22.0345C48.3645 22.502 48.7421 22.8426 49.2759 23.0563C49.8097 23.2699 50.6126 23.4074 51.6802 23.4709V23.9173H42.4686V23.4709C43.5362 23.4074 44.3391 23.2699 44.873 23.0563C45.4068 22.8447 45.7844 22.5041 46.0014 22.0345C46.2184 21.567 46.329 20.8752 46.329 19.9613V5.70066C46.329 4.78676 46.2205 4.09499 46.0014 3.62746C45.7822 3.15993 45.4068 2.81934 44.873 2.60567C44.337 2.39412 43.5362 2.2545 42.4686 2.19103V1.74466H50.732L58.2792 17.8077L65.5986 1.74466H73.4736V2.19103C72.4037 2.2545 71.5965 2.39412 71.0518 2.60567C70.5072 2.81934 70.1252 3.16416 69.9061 3.64227C69.6869 4.12037 69.5784 4.8058 69.5784 5.70066V19.9613C69.5784 20.8752 69.6869 21.567 69.9061 22.0345C70.1252 22.5041 70.5072 22.8426 71.0518 23.0563ZM87.457 12.3053C88.1319 13.5175 88.4704 14.8883 88.4704 16.4199C88.4704 17.9516 88.1319 19.3224 87.457 20.5346C86.78 21.7468 85.8382 22.6839 84.6274 23.3419C83.4165 24.0019 82.0364 24.3319 80.487 24.3319C78.9376 24.3319 77.564 24.0019 76.364 23.3419C75.164 22.6839 74.22 21.7468 73.5343 20.5346C72.8464 19.3224 72.5036 17.9516 72.5036 16.4199C72.5036 14.8883 72.8464 13.5175 73.5343 12.3053C74.2222 11.0931 75.164 10.158 76.364 9.49799C77.564 8.83795 78.9376 8.50793 80.487 8.50793C82.0364 8.50793 83.4165 8.83795 84.6274 9.49799C85.8382 10.158 86.78 11.0931 87.457 12.3053ZM84.1847 16.4199C84.1847 14.9095 84.0371 13.6127 83.742 12.5274C83.4469 11.4421 83.0216 10.6192 82.466 10.0544C81.9105 9.49164 81.2487 9.20817 80.487 9.20817C79.7232 9.20817 79.0635 9.48953 78.508 10.0544C77.9524 10.6192 77.5271 11.4421 77.232 12.5274C76.9369 13.6127 76.7893 14.9095 76.7893 16.4199C76.7893 17.9304 76.9369 19.2272 77.232 20.3125C77.5271 21.3977 77.9524 22.2206 78.508 22.7855C79.0635 23.3503 79.7232 23.6317 80.487 23.6317C81.2508 23.6317 81.9105 23.3503 82.466 22.7855C83.0216 22.2228 83.4469 21.3977 83.742 20.3125C84.0371 19.2272 84.1847 17.9304 84.1847 16.4199ZM99.5656 11.9224C100.132 11.9224 100.646 12.0176 101.104 12.2101V8.70044C100.82 8.57351 100.484 8.51005 100.091 8.51005C99.0861 8.51005 98.1985 8.94161 97.4238 9.80262C96.6492 10.6636 96.0459 11.6537 95.486 13.6253H95.4123V8.63698H95.2821L88.8024 10.4563V10.871C89.5446 10.871 90.1175 10.9408 90.5211 11.0783C90.9247 11.2158 91.2133 11.44 91.3891 11.7489C91.5627 12.0578 91.6517 12.4766 91.6517 13.0097V20.9217C91.6517 21.5818 91.5865 22.0704 91.4563 22.3899C91.3261 22.7093 91.0853 22.9484 90.7359 23.107C90.3865 23.2657 89.831 23.3884 89.0672 23.473V23.9194H98.1638V23.473C97.4 23.4096 96.8271 23.2974 96.4452 23.1388C96.0633 22.9801 95.7963 22.7347 95.6444 22.4047C95.4925 22.0747 95.4144 21.5796 95.4144 20.9217V14.6514C96.1001 13.0795 97.6105 11.9224 99.5656 11.9224ZM147.316 22.3708C147.186 22.0408 147.121 21.5479 147.121 20.8879V13.6127C147.121 10.1961 145.181 8.50793 142.638 8.50793C140.095 8.50793 138.461 10.2638 137.762 11.1989H137.697V8.63698H137.567L131.087 10.4563V10.871C131.807 10.871 132.374 10.9408 132.788 11.0783C133.203 11.2158 133.498 11.4337 133.672 11.732C133.845 12.0303 133.934 12.4449 133.934 12.9759V20.8858C133.934 21.5458 133.869 22.0408 133.739 22.3687C133.609 22.6988 133.368 22.942 133.018 23.1028C132.669 23.2615 132.113 23.3842 131.35 23.4688V23.9152H139.858V23.4688C139.27 23.3842 138.817 23.2615 138.5 23.1028C138.183 22.9442 137.97 22.6988 137.862 22.3687C137.753 22.0387 137.699 21.5458 137.699 20.8858V12.3582C138.452 11.4675 139.337 10.6129 140.776 10.6129C142.753 10.6129 143.361 12.0662 143.361 13.7078V20.8858C143.361 21.5458 143.3 22.0408 143.18 22.3687C143.061 22.6988 142.853 22.942 142.558 23.1028C142.263 23.2615 141.811 23.3842 141.199 23.4688V23.9152H149.61V23.4688C148.89 23.3842 148.36 23.2615 148.024 23.1028C147.681 22.9442 147.449 22.7009 147.316 22.3708ZM230 19.5149C229.277 21.0529 227.261 24.3319 223.16 24.3319C219.265 24.3319 216.027 21.2264 216.027 16.549C216.027 15.0808 216.355 13.7311 217.008 12.4978C217.664 11.2644 218.551 10.2913 219.675 9.57838C220.799 8.86545 222.036 8.51005 223.39 8.51005C227.32 8.51005 229.28 11.2094 229.28 14.0231V14.6577H219.53C219.53 14.7148 219.528 14.7698 219.528 14.827C219.528 18.2118 221.073 21.4633 224.959 21.4633C227.915 21.4633 229.152 19.8682 229.638 19.2949L230 19.5149ZM219.597 13.5809H225.712C225.671 11.2687 224.963 9.25048 223.03 9.24201C221.216 9.23567 219.901 10.8858 219.597 13.5809ZM186.598 22.3708C186.468 22.0408 186.403 21.5479 186.403 20.8879V13.6127C186.403 12.5062 186.212 11.5712 185.83 10.8054C185.448 10.0396 184.918 9.46626 184.243 9.08335C183.566 8.70044 182.792 8.51005 181.919 8.51005C180.915 8.51005 180.027 8.75968 179.252 9.25894C178.478 9.7582 177.742 10.4775 177.043 11.4125H176.978V1H176.848L170.368 2.81934V3.23398C171.089 3.23398 171.655 3.30379 172.07 3.44129C172.484 3.5788 172.779 3.7967 172.953 4.09499C173.126 4.39327 173.215 4.80791 173.215 5.3389V20.8858C173.215 21.5458 173.15 22.0408 173.02 22.3687C172.89 22.6988 172.649 22.942 172.3 23.1028C171.95 23.2615 171.395 23.3842 170.631 23.4688V23.9152H179.14V23.4688C178.551 23.3842 178.098 23.2615 177.781 23.1028C177.464 22.9442 177.252 22.6988 177.143 22.3687C177.035 22.0387 176.98 21.5458 176.98 20.8858V12.3582C177.733 11.4675 178.619 10.6129 180.057 10.6129C180.865 10.6129 181.496 10.8731 181.956 11.3935C182.414 11.9139 182.644 12.6861 182.644 13.7057V20.8858C182.644 21.5458 182.583 22.0408 182.464 22.3687C182.345 22.6988 182.136 22.942 181.841 23.1028C181.546 23.2615 181.095 23.3842 180.483 23.4688V23.9152H188.894V23.4688C188.173 23.3842 187.644 23.2615 187.307 23.1028C186.962 22.9442 186.73 22.7009 186.598 22.3708ZM162.83 22.5401C158.004 22.5718 154.176 18.7893 154.176 12.6522C154.176 6.16607 157.741 2.38354 161.819 2.38354C165.896 2.38354 167.645 5.96509 168.537 9.48318L169.19 9.4726V2.99915C167.658 2.17199 165.145 1.23905 161.493 1.23905C154.449 1.23905 149.133 6.26338 149.133 12.9717C149.133 19.3626 153.568 24.4165 161.2 24.3848C165.408 24.3531 168.342 21.9054 169.743 20.029L169.288 19.553C168.342 20.6023 166.449 22.5084 162.83 22.5401ZM211.414 15.0491L209.157 13.9956C207.658 13.3419 206.801 12.4766 206.801 11.4125C206.801 10.2067 207.933 9.38164 209.517 9.38164C211.824 9.38164 213.02 10.6256 213.515 13.3905H214.196V9.37106C213.519 9.11508 211.731 8.51005 209.91 8.51005C206.31 8.51005 204.118 10.7165 204.118 13.2636C204.118 14.2431 204.385 15.0977 204.919 15.8318C205.453 16.5659 206.256 17.1984 207.323 17.7294L209.68 18.8781C211.292 19.5953 211.939 20.3019 211.939 21.366C211.939 22.5422 210.967 23.4624 209.125 23.4624C206.432 23.4624 205.151 20.9725 204.8 18.9733H204.118V23.088C205.145 23.7354 207.076 24.3319 208.864 24.3319C212.314 24.3319 214.721 22.2714 214.721 19.3563C214.719 17.2556 213.569 15.9418 211.414 15.0491ZM32.5365 14.2515V19.9613C32.5365 20.854 32.6667 21.5395 32.9293 22.0197C33.1918 22.4978 33.628 22.8447 34.2378 23.0563C34.8476 23.2699 35.7763 23.4074 37.0197 23.4709V23.9173H24.3556V23.4709C25.4232 23.4074 26.2261 23.2699 26.76 23.0563C27.2938 22.8447 27.6714 22.5041 27.8884 22.0345C28.1054 21.567 28.216 20.8752 28.216 19.9613V5.79797C28.216 2.88069 26.8641 2.28834 24.8113 2.28834C22.5588 2.28834 21.1809 2.87857 21.1809 5.70277V21.55C21.1809 25.1316 18.7939 28.5376 14.0807 28.5376C13.7161 28.5376 13.3559 28.5164 13 28.4762V28.0933C14.1197 28.0277 15.0268 27.6575 15.7168 26.9742C16.4807 26.219 16.8626 24.9814 16.8626 23.2572V5.70066C16.8626 4.80791 16.7541 4.12037 16.5349 3.64227C16.3158 3.16416 15.9338 2.81934 15.3892 2.60567C14.8445 2.39412 14.0481 2.2545 13 2.19103V1.74466H35.3618C40.4483 1.74466 43.597 4.22403 43.597 7.96636C43.597 12.2503 39.2809 14.2515 35.4226 14.2515H32.5365ZM32.5365 13.3948H34.0967C36.7506 13.3948 38.9836 11.8801 38.9836 7.9981C38.9836 3.25301 35.7698 2.60144 34.177 2.60144H32.5365V13.3948ZM129.768 22.6437C130.308 22.6437 130.783 22.4132 131.085 22.2143V22.9717C130.482 23.5217 129.362 24.3213 127.678 24.3213C126.259 24.3213 125.067 23.4434 124.751 22.1043H124.666C124.113 23.124 122.422 24.4123 120.578 24.4123C118.364 24.4123 116.735 22.9738 116.735 20.7863C116.735 19.077 117.935 17.9389 119.931 17.2492L124.666 15.5864V13.4434C124.666 11.495 123.221 10.5959 121.654 10.5959C120.055 10.5959 118.579 11.256 117.043 12.7834L116.583 12.3645C117.935 10.2363 120.087 8.49736 123.193 8.49736C126.144 8.49736 128.511 10.3865 128.481 13.4434L128.42 21.0867C128.416 22.1635 128.878 22.6437 129.768 22.6437ZM124.666 16.5849L122.761 17.3381C121.285 17.9071 120.333 18.5672 120.333 20.0946C120.333 21.3829 121.255 22.282 122.546 22.282C123.223 22.282 124.206 21.7722 124.668 21.2031V16.5849H124.666ZM202.009 22.6437C202.552 22.6437 203.025 22.411 203.329 22.2143V22.9717C202.725 23.5217 201.606 24.3235 199.919 24.3235C198.5 24.3235 197.309 23.4455 196.992 22.1064H196.907C196.354 23.1261 194.664 24.4144 192.819 24.4144C190.606 24.4144 188.976 22.9759 188.976 20.7884C188.976 19.0791 190.176 17.941 192.173 17.2513L196.907 15.5885V13.4434C196.907 11.495 195.462 10.5959 193.896 10.5959C192.296 10.5959 190.821 11.256 189.284 12.7834L188.822 12.3645C190.174 10.2363 192.327 8.49736 195.432 8.49736C198.383 8.49736 200.751 10.3865 200.72 13.4434L200.659 21.0867C200.657 22.1635 201.117 22.6437 202.009 22.6437ZM196.905 16.5849L195 17.3381C193.524 17.9071 192.572 18.5672 192.572 20.0946C192.572 21.3829 193.494 22.282 194.785 22.282C195.462 22.282 196.445 21.7722 196.907 21.2031V16.5849H196.905ZM112.848 9.55722C114.248 10.6213 114.866 12.153 114.866 13.4603C114.866 16.8938 111.857 18.6729 108.43 18.6729C107.527 18.6729 106.655 18.5481 105.859 18.3027C105.416 18.6349 105.036 19.0685 105.036 19.5763C105.036 20.6679 106.861 20.8879 107.951 20.9492L111.666 21.1989C114.643 21.3871 116.531 22.4153 116.531 25.0068C116.531 28.2837 112.555 31 106.766 31C103.404 31 101.002 29.8767 101.002 27.8775C101.002 26.1407 101.983 25.1464 104.505 23.9659C102.855 23.4984 102.473 22.5401 102.473 21.6029C102.473 20.3209 103.647 19.1701 105.238 18.0785C103.333 17.2957 101.994 15.7451 101.994 13.4561C101.994 10.0226 105.004 8.2435 108.43 8.2435C110.006 8.2435 111.26 8.59255 112.225 9.14047C112.946 7.72943 114.367 6.08779 116.915 6.08779V9.01777C115.554 8.60736 113.894 8.82103 112.848 9.55722ZM103.691 26.5088C103.691 28.3197 105.804 29.1299 108.558 29.1299C111.184 29.1299 114.736 27.9748 114.736 26.1322C114.736 25.0702 114.129 24.8206 112.527 24.6958L106.093 24.2304C105.715 24.2029 105.375 24.1606 105.069 24.1034C104.142 24.8079 103.691 25.5314 103.691 26.5088ZM110.895 13.4624C110.895 10.5282 109.904 9.12355 108.43 9.12355C106.957 9.12355 105.965 10.5282 105.965 13.4624C105.965 16.3967 106.957 17.8014 108.43 17.8014C109.904 17.8014 110.895 16.3967 110.895 13.4624Z" fill="currentColor"/></svg>