<svg viewBox="0 0 191 52" fill="none" xmlns="http://www.w3.org/2000/svg"><path d="M0.520253 39.1023C0.520253 41.6945 1.7384 45.6934 5.66353 45.6934C9.58725 45.6934 10.8068 41.6945 10.8068 39.1037C10.8068 36.5115 9.58866 32.5125 5.66353 32.5125C1.7384 32.5125 0.520253 36.517 0.520253 39.1037V39.1023ZM3.03973 39.1023C3.03973 36.4127 3.06651 33.1846 5.66494 33.1846C8.26195 33.1846 8.28874 36.4154 8.28874 39.1037C8.28874 41.7975 8.26195 45.0506 5.66635 45.0506C3.06369 45.0506 3.03973 41.7975 3.03973 39.1037V39.1023ZM13.5589 33.442V44.7459H11.6894V45.3845H17.5855V44.7445H15.8175V33.442H17.9253V32.8005H15.8175V29.9523C15.8175 28.4134 15.9754 27.3921 17.1682 27.3921C18.0282 27.3921 18.3356 28.0043 18.3356 29.1049C18.3356 29.9231 18.6486 30.3099 19.3747 30.3099C19.9471 30.3099 20.3376 29.9231 20.3376 29.2343C20.3376 27.2321 18.3624 26.7493 17.0385 26.7493C15.3777 26.7493 13.5603 27.4658 13.5603 30.2598V32.7964H11.6894V33.4392H13.5603L13.5589 33.442ZM25.0565 44.5385C26.4072 45.2551 28.6673 45.6419 30.1744 45.6419C33.2409 45.6419 35.6547 44.2839 35.6547 40.3865C35.6547 33.4879 27.1107 35.3858 27.1107 30.7969C27.1107 28.7752 28.8505 27.3893 30.3845 27.3893C32.4345 27.3893 34.022 28.9505 34.3322 31.8739H35.0343L34.9046 27.8485C33.7062 27.2084 31.9438 26.7715 30.6453 26.7715C28.0751 26.7715 25.3202 28.3104 25.3202 31.8224C25.3202 38.1561 33.8401 36.3904 33.8401 41.3341C33.8401 43.7969 32.1511 45.0255 30.3055 45.0255C27.4759 45.0255 25.7601 43.0998 25.5782 39.8745H24.9029L25.0565 44.5385ZM38.7282 44.7459H36.8051V45.3845H42.862V44.7445H40.9629V32.8005H36.8037V33.442H38.7282V44.7459ZM38.4674 28.8239C38.4674 29.7213 39.1159 30.3642 39.8434 30.3642C40.5456 30.3642 41.2209 29.7464 41.2209 28.8239C41.2209 27.8749 40.5724 27.285 39.8434 27.285C39.0652 27.285 38.4674 27.8485 38.4674 28.8239ZM43.0932 44.7459V45.3845H48.9894V44.7445H47.2496V38.0796C47.2496 35.6933 48.2901 33.4406 50.3401 33.4406C51.8994 33.4406 52.1081 34.8501 52.1081 36.2568V44.7445H50.3669V45.3831H56.1079V44.7431H54.3681V36.133C54.3681 33.5686 53.2769 32.5153 51.1197 32.5153C49.3024 32.5153 47.9757 33.4907 47.3032 35.2355H47.2496V32.8005H43.0932V33.467H45.0149V44.7486L43.0932 44.7459ZM61.5346 32.5125C59.6651 32.5125 57.9239 33.9763 57.9239 36.3862C57.9239 37.5133 58.0818 38.1812 58.6767 39.1037C57.6094 39.5656 56.7001 40.4867 56.7001 42.0006C56.7001 43.4616 57.5587 44.5942 58.9094 44.9504V45.0005V44.9727C57.8435 45.205 56.7522 45.9481 56.7522 47.4355C56.7522 50.4632 60.0246 51.0226 61.9209 51.0226C64.3106 51.0226 67.2193 49.8705 67.2193 46.4086C67.2193 43.5618 65.6077 42.4848 63.3731 42.4848H59.5551C58.3073 42.4848 57.5545 42.3039 57.5545 41.3605C57.5545 40.4895 58.5414 39.7437 59.1942 39.7437C59.9494 40.259 60.8448 40.5369 61.763 40.541C63.8426 40.541 65.5048 38.9506 65.5048 36.4363C65.5123 35.6602 65.3233 34.8944 64.955 34.2087C64.955 33.8998 65.3455 33.4406 65.6049 33.4406C66.3832 33.4406 65.6331 35.1326 66.8033 35.1326C67.3222 35.1326 67.607 34.6456 67.607 34.0055C67.607 33.0273 66.8809 32.5139 66.2098 32.5139C65.4555 32.5139 64.9578 32.98 64.5687 33.5686C63.8186 32.7713 62.7048 32.5125 61.5346 32.5125ZM60.026 36.2833C60.026 34.6943 60.1571 33.1581 61.7672 33.1581C63.3787 33.1581 63.3787 35.1562 63.3787 36.6172C63.3787 37.9752 63.2476 39.8731 61.6897 39.8731C60.1063 39.8731 60.026 37.6427 60.026 36.2833ZM63.0939 45.0005C65.1721 45.0005 66.3127 45.3581 66.3127 47.0807C66.3127 48.8979 64.5221 50.3338 62.2085 50.3338C59.9485 50.3338 58.3623 49.6423 58.3623 47.5607C58.3651 45.1814 60.002 45.0005 63.0939 45.0005ZM74.9623 43.7162C75.3247 45.2551 76.1847 45.3845 77.4029 45.3845H79.0919V44.7445C77.8442 44.7445 77.3535 44.9713 77.3535 43.0275V36.2332C77.3535 34.1029 76.602 32.5125 73.1704 32.5125C71.4024 32.5125 68.9111 33.0802 68.9111 35.5402C68.9111 36.3111 69.351 36.4906 69.922 36.4906C70.6241 36.4906 71.0133 36.0732 71.0133 35.1548C71.0133 33.5408 72.0523 33.1581 73.1704 33.1581C74.6254 33.1581 75.0921 34.3102 75.0921 36.0745V37.1543C72.3132 38.1519 68.2851 38.1798 68.2851 42.0229C68.2851 44.3591 69.0916 45.6934 71.3728 45.6934C72.8306 45.6934 74.1051 45.2551 74.9623 43.7176V43.7162ZM75.0935 37.8723V40.8471C75.0935 42.5919 74.2334 44.8196 72.3146 44.8196C71.1162 44.8196 70.8074 43.5145 70.8074 41.9505C70.8074 39.4376 71.7943 38.8755 73.1154 38.4622L75.0935 37.8723ZM79.2484 51.0239H85.3772V50.3839H83.4795V43.9235H83.5063C83.9997 45.1563 85.1164 45.6934 86.3669 45.6934C89.8212 45.6934 91.2733 42.5641 91.2733 39.1037C91.2733 34.3854 89.0655 32.5125 86.7279 32.5125C85.2729 32.5125 84.207 32.9786 83.5063 34.5649H83.4795V32.7991H79.3739V33.4656H81.2208V50.3839H79.2456L79.2484 51.0239ZM83.4033 37.9001C83.4033 34.1015 85.012 33.3098 86.0286 33.3098C88.0799 33.3098 88.7835 35.8283 88.7835 39.1037C88.7835 42.7714 87.7966 44.8961 86.0286 44.8961C83.7925 44.8961 83.4033 42.2316 83.4033 39.9997V37.9001ZM92.8327 39.1023C92.8327 41.6945 94.0522 45.6934 97.9788 45.6934C101.901 45.6934 103.122 41.6945 103.122 39.1037C103.122 36.5115 101.901 32.5125 97.9788 32.5125C94.0522 32.5125 92.8327 36.517 92.8327 39.1037V39.1023ZM95.3535 39.1023C95.3535 36.4127 95.3804 33.1846 97.9788 33.1846C100.576 33.1846 100.603 36.4154 100.603 39.1037C100.603 41.7975 100.576 45.0506 97.9802 45.0506C95.3789 45.0506 95.3535 41.7975 95.3535 39.1037V39.1023ZM105.925 44.7459H104.003V45.3845H110.002V44.7445H108.158V38.977C108.158 36.2067 109.404 33.5686 110.625 33.5686C110.934 33.5686 111.171 33.7968 111.171 34.16V35.3621C111.171 36.158 111.612 36.4154 112.21 36.4154C112.99 36.4154 113.352 35.6724 113.352 34.8264C113.352 33.3376 112.544 32.5167 111.247 32.5167C109.557 32.5167 108.678 34.1057 108.208 35.5973H108.158V32.8005H103.999V33.4434H105.922L105.925 44.7459ZM123.587 38.3106C123.587 34.8765 121.847 32.5417 118.832 32.5417C115.612 32.5417 113.686 35.646 113.686 39.1037C113.686 42.7186 115.013 45.6934 118.466 45.6934C120.933 45.6934 122.285 44.7932 123.245 41.8211L122.595 41.6444C121.998 43.3837 121.066 44.9003 119.167 44.9003C116.307 44.9003 116.206 42.3624 116.206 38.7711V38.3092H123.588L123.587 38.3106ZM116.209 37.5912C116.209 36.005 116.699 33.1846 118.598 33.1846C120.833 33.1846 120.936 35.749 120.936 37.5912H116.209ZM2.07818 19.6878H0V20.3279H5.19545V19.6878H2.80428V3.07428H2.85784L8.75401 20.6368H9.22067L15.1196 3.07428H15.1704V19.6878H12.7031V20.3279H19.6891V19.6878H17.6645V2.63737H19.6891V1.99731H14.7305L10.78 13.7645L9.89601 16.5849L9.06699 13.816L5.09111 1.99731H0.00141987V2.63737H2.07818V19.6878ZM20.8114 14.0498C20.8114 16.6378 22.0323 20.6368 25.9546 20.6368C29.8784 20.6368 31.1007 16.6378 31.1007 14.0498C31.1007 11.4576 29.8798 7.46281 25.9546 7.46281C22.0337 7.46281 20.8114 11.4562 20.8114 14.0498ZM23.3308 14.0498C23.3308 11.3546 23.359 8.1293 25.956 8.1293C28.5559 8.1293 28.5813 11.3574 28.5813 14.0498C28.5813 16.7394 28.5559 19.9981 25.956 19.9981C23.3576 19.9981 23.3308 16.7422 23.3308 14.0498ZM31.9791 19.6878V20.3265H37.8752V19.6864H36.1354V13.0187C36.1354 10.6339 37.1745 8.37975 39.2259 8.37975C40.7853 8.37975 40.9925 9.78926 40.9925 11.2015V19.6864H39.2527V20.3251H44.9909V19.685H43.254V11.0722C43.254 8.50777 42.1627 7.45724 40.0056 7.45724C38.1868 7.45724 36.8615 8.42984 36.1876 10.1775H36.1354V7.74248H31.9791V8.4048H33.8994V19.692H31.9791V19.6878ZM55.7709 13.2525C55.7709 9.81848 54.034 7.48368 51.0154 7.48368C47.798 7.48368 45.8721 10.5865 45.8721 14.0442C45.8721 17.6605 47.2002 20.6312 50.6516 20.6312C53.1189 20.6312 54.471 19.7351 55.4298 16.7617L54.7812 16.5808C54.1834 18.3284 53.2487 19.8395 51.3524 19.8395C48.4931 19.8395 48.3916 17.3015 48.3916 13.7117V13.2497L55.7724 13.2525H55.7709ZM48.3944 12.5345C48.3944 10.9455 48.8879 8.12513 50.7828 8.12513C53.0174 8.12513 53.1218 10.6909 53.1218 12.5359L48.3944 12.5345ZM56.4237 8.37975H58.2143V17.3266C58.2143 18.9671 58.3948 20.4851 60.7098 20.4851C62.4242 20.4851 63.2307 19.6141 63.7241 18.2533L63.1263 18.0237C62.7654 18.8404 62.3467 19.5598 61.5402 19.5598C60.6576 19.5598 60.449 18.8404 60.449 17.3307V8.38114H62.9177V7.76614H60.4504V4.35716H58.2129V7.76614H56.4237V8.37975Z" fill="currentColor"/><path d="M70.0409 18.3926C70.4039 19.9435 71.2673 20.0753 72.4965 20.0753H74.1937V19.4303C72.9375 19.4303 72.4441 19.6574 72.4441 17.6985V10.8484C72.4441 8.70295 71.687 7.10437 68.2375 7.10437C66.4624 7.10437 63.9528 7.67229 63.9528 10.1529C63.9528 10.9297 64.398 11.1078 64.9722 11.1078C65.6769 11.1078 66.0696 10.6942 66.0696 9.76587C66.0696 8.13924 67.1145 7.74941 68.2389 7.74941C69.7035 7.74941 70.1699 8.91329 70.1699 10.6942V11.7795C67.3768 12.7835 63.3262 12.813 63.3262 16.686C63.3262 19.0405 64.1357 20.3824 66.434 20.3824C67.9 20.3824 69.1803 19.9421 70.0409 18.3926ZM70.1713 12.5031V15.4997C70.1713 17.2596 69.3079 19.506 67.3783 19.506C66.1731 19.506 65.8612 18.1865 65.8612 16.6103C65.8612 14.0792 66.8537 13.5113 68.185 13.0962L70.1699 12.5017L70.1713 12.5031ZM76.2864 19.4261H74.351V20.0697H80.3866V19.4247H78.5293V13.6109C78.5293 10.8204 79.7827 8.16027 81.0105 8.16027C81.3224 8.16027 81.5606 8.39165 81.5606 8.75624V9.9678C81.5606 10.7699 82.0029 11.0265 82.6055 11.0265C83.3896 11.0265 83.7539 10.2833 83.7539 9.42792C83.7539 7.9275 82.943 7.10437 81.6372 7.10437C79.9372 7.10437 79.0525 8.70295 78.5804 10.2034H78.5293V7.39043H74.3468V8.03407H76.2821L76.2849 19.4275L76.2864 19.4261Z" fill="currentColor"/><path d="M88.0621 21.225C87.4638 23.5328 86.6326 24.5647 85.9553 24.5647C85.3062 24.5647 85.2004 23.8926 85.2004 23.226C85.2004 22.5623 85.0452 21.8943 84.2409 21.8943C83.5918 21.8943 83.2291 22.4326 83.2291 23.3306C83.2291 24.4378 83.9558 25.4893 85.2823 25.4893C88.1919 25.4893 88.5588 21.5346 89.2079 19.6576L93.2647 7.65963H94.8494L94.8776 7.04466H90.3777V7.65963H92.5098L90.2224 14.6487C89.9092 15.5481 89.6721 16.5466 89.6721 16.5466H89.5959C89.5959 16.5466 89.4393 15.5704 89.1274 14.5915L86.9445 7.65544H88.975V7.04188H82.7324V7.65544H84.3961L88.4769 19.6534L88.0621 21.225ZM99.4185 19.0134H97.5474V19.6534H102.619V19.012H100.224L101.886 13.1273H106.1L107.789 19.012H105.478V19.6534H112.604V19.012H110.572L105.19 0.975952H104.62L99.4185 19.0134ZM105.918 12.4636H102.046L103.396 7.76003L103.942 5.4731H104.072L104.591 7.76003L105.918 12.4636ZM119.984 19.6548H124.142V19.0134H122.243V7.06698H117.984V7.68333H119.984V14.3879C119.984 16.778 118.944 19.0371 116.892 19.0371C115.358 19.0371 115.122 17.6217 115.122 16.2077V7.06558H111.119V7.68194H112.887V16.3416C112.887 18.9102 113.954 19.9644 116.138 19.9644C117.932 19.9644 119.257 18.9883 119.958 17.241H119.986L119.984 19.6562V19.6548ZM124.452 7.68054H126.245V16.647C126.245 18.291 126.425 19.8124 128.742 19.8124C130.459 19.8124 131.262 18.9395 131.759 17.5757L131.162 17.3456C130.797 18.1641 130.382 18.8851 129.573 18.8851C128.691 18.8851 128.481 18.1641 128.481 16.6511V7.68194H130.951V7.06558H128.481V3.64914H126.245V7.06558H124.452V7.68054Z" fill="currentColor"/><path d="M131.759 19.4463V20.0763H137.62V19.4449H135.891V12.8683C135.891 10.516 136.925 8.29262 138.963 8.29262C140.513 8.29262 140.72 9.68289 140.72 11.0759V19.4449H138.989V20.0749H144.697V19.4436H142.967V10.9483C142.967 8.41889 141.882 7.38271 139.738 7.38271C137.931 7.38271 136.612 8.34203 135.944 10.0658H135.891V1.99731H131.759V2.62863H133.671V19.4491H131.759V19.4463ZM145.573 13.8853C145.573 16.438 146.785 20.3823 150.688 20.3823C154.588 20.3823 155.801 16.438 155.801 13.8853C155.801 11.3284 154.588 7.3882 150.688 7.3882C146.785 7.3882 145.573 11.3271 145.573 13.8853ZM148.077 13.8853C148.077 11.2269 148.103 8.04559 150.688 8.04559C153.27 8.04559 153.295 11.2296 153.295 13.8853C153.295 16.5381 153.27 19.7524 150.688 19.7524C148.103 19.7524 148.077 16.5409 148.077 13.8853ZM158.586 19.4463H156.675V20.0763H162.641V19.4449H160.805V13.7549C160.805 11.0237 162.047 8.42026 163.259 8.42026C163.567 8.42026 163.802 8.64671 163.802 9.00354V10.1893C163.802 10.9743 164.242 11.2255 164.836 11.2255C165.611 11.2255 165.971 10.4981 165.971 9.66093C165.971 8.19243 165.168 7.38683 163.876 7.38683C162.198 7.38683 161.322 8.95139 160.855 10.4199H160.805V7.6668H156.672V8.29674H158.582L158.586 19.4463ZM168.061 19.4463H166.151V20.0763H172.17V19.4449H170.284V7.66268H166.151V8.294H168.061V19.4463ZM167.803 3.74304C167.803 4.62826 168.449 5.2582 169.172 5.2582C169.87 5.2582 170.543 4.65159 170.543 3.74304C170.543 2.80568 169.898 2.22514 169.172 2.22514C168.399 2.22514 167.803 2.78235 167.803 3.74304ZM172.504 8.29262H174.287V17.1173C174.287 18.7354 174.467 20.2327 176.767 20.2327C178.473 20.2327 179.271 19.3736 179.764 18.0313L179.168 17.8049C178.808 18.6105 178.393 19.32 177.593 19.32C176.716 19.32 176.508 18.6105 176.508 17.1214V8.294H178.961V7.68738H176.508V4.32495H174.287V7.68738H172.504V8.29262Z" fill="currentColor"/><path d="M184.121 21.2395C183.518 23.5395 182.678 24.568 181.996 24.568C181.34 24.568 181.236 23.8981 181.236 23.2338C181.236 22.5723 181.079 21.9066 180.266 21.9066C179.608 21.9066 179.244 22.443 179.244 23.338C179.244 24.4415 179.98 25.4894 181.314 25.4894C184.253 25.4894 184.62 21.548 185.277 19.6774L189.369 7.72003H190.972L190.999 7.10715H186.46V7.72003H188.61L186.301 14.6854C185.987 15.5818 185.748 16.5769 185.748 16.5769H185.67C185.67 16.5769 185.51 15.6041 185.196 14.6285L182.993 7.71586H185.04V7.10437H178.743V7.71586H180.423L184.541 19.6733L184.121 21.2395Z" fill="currentColor"/></svg>