<svg width="237" height="169" viewBox="0 0 237 169" fill="none" xmlns="http://www.w3.org/2000/svg" class="styles_cardIllustration__rMiSa"><g style="transform: none; transform-origin: 65px 57.0001px;" transform-origin="65px 57.00005912780762px"><g style="transform: translateX(18.7828px); transform-origin: 65px 57.0001px;" transform-origin="65px 57.00005912780762px"><path d="M65 122C29.1015 122 8.98209e-06 92.8986 1.52588e-05 57.0001L130 57.0001C130 92.8986 100.899 122 65 122Z" fill="#9896FF" style="fill:color(display-p3 0.5951 0.5870 1.0000)"></path><path d="M65 -7.99988C100.899 -7.99988 130 21.1016 130 57.0001L0 57.0001C3.13835e-06 21.1016 29.1015 -7.99988 65 -7.99988Z" fill="#E2E0FF" style="fill:color(display-p3 0.8863 0.8784 1.0000)"></path></g></g><g style="transform: none; transform-origin: 158.286px 56.9998px;" transform-origin="158.2863540649414px 56.999794006347656px"><g style="transform: translateX(16.0785px); transform-origin: 158.286px 56.9998px;" transform-origin="158.2863540649414px 56.999794006347656px"><path d="M158.286 -35.8574C107.003 -35.8573 65.4289 5.71631 65.4289 57L251.144 57C251.144 5.7163 209.57 -35.8574 158.286 -35.8574Z" fill="#9896FF" style="fill:color(display-p3 0.5951 0.5870 1.0000)"></path><path d="M158.286 149.857C209.57 149.857 251.143 108.284 251.143 57L65.4287 57C65.4287 108.284 107.002 149.857 158.286 149.857Z" fill="#BCBBFF" style="fill:color(display-p3 0.7391 0.7337 1.0000)"></path></g></g><g style="transform: none; transform-origin: 251px 57.0001px;" transform-origin="251px 57.00005340576172px"><g style="transform: translateX(12.0452px); transform-origin: 251px 57.0001px;" transform-origin="251px 57.00005340576172px"><path d="M251 169C312.856 169 363 118.856 363 57.0001L139 57.0001C139 118.856 189.144 169 251 169Z" fill="#9896FF" style="fill:color(display-p3 0.5951 0.5870 1.0000)"></path><path d="M251 -54.9999C189.144 -54.9999 139 -4.85577 139 57.0001L363 57.0001C363 -4.85577 312.856 -54.9999 251 -54.9999Z" fill="#E2E0FF" style="fill:color(display-p3 0.8863 0.8784 1.0000)"></path></g></g></svg>