<svg viewBox="0 0 101 101" fill="none" xmlns="http://www.w3.org/2000/svg"><path fill-rule="evenodd" clip-rule="evenodd" d="M51.3332 64.4873C46.8529 64.4873 44.9155 62.9487 45.5209 59.8714L48.6996 43.5056C49.3202 40.3817 51.8555 38.8197 56.3055 38.8197H71.3131L70.3596 43.5756H57.6451L54.4438 59.9646L66.9766 59.9879L66.1139 64.4873H51.3332ZM70.0091 64.4873L75.004 38.8663H84.1084L79.1135 64.4873H70.0091ZM40.98 64.464L32.3069 64.4407L33.6466 57.4701L28.8786 57.4934L29.8095 52.7609L34.532 52.7376L36.3483 43.4357L29.4008 43.4123L26.0179 60.7106H16.8906L21.5904 36.5117H30.7858L30.3316 38.7964L39.3226 38.8197C43.7727 38.8353 45.6874 40.3972 45.0669 43.5056L40.98 64.464Z" fill="#211D1D" style="fill:color(display-p3 0.1255 0.1137 0.1137)"/></svg>