<svg xmlns="http://www.w3.org/2000/svg" viewBox="0 0 101 101" fill="none"><path d="M78.1337 47.8616C78.1598 46.0516 78.0121 44.2434 77.6927 42.4616C77.0948 39.2709 75.8551 36.2348 74.0487 33.5376C72.2245 30.8154 69.8765 28.4838 67.1417 26.6786C64.4623 24.8883 61.4591 23.6385 58.3007 22.9996C55.1298 22.3562 51.8643 22.3331 48.6847 22.9316C36.8467 25.1396 28.1747 35.8546 28.5027 47.8616V47.8826C28.5157 48.8056 29.4217 49.9826 36.1527 50.9366C40.7427 51.5876 46.8367 51.9466 53.3127 51.9466C59.7897 51.9466 65.8847 51.5876 70.4737 50.9366C77.2197 49.9816 78.1157 48.8016 78.1237 47.8826V47.8686L78.1337 47.8616ZM69.7487 49.7016C65.2867 50.2936 59.4547 50.6216 53.3217 50.6216C47.1887 50.6216 41.3547 50.3006 36.8947 49.7016C30.7797 48.8856 29.9537 47.9436 29.8727 47.8296C29.5467 36.4636 37.7507 26.3196 48.9407 24.2326C51.944 23.6671 55.0284 23.6885 58.0237 24.2956C61.0072 24.8986 63.8442 26.0784 66.3757 27.7686C68.961 29.4783 71.1801 31.6855 72.9037 34.2616C74.6106 36.8136 75.7816 39.6856 76.3457 42.7036C76.6487 44.3956 76.7877 46.1116 76.7617 47.8296C76.6817 47.9436 75.8497 48.8856 69.7397 49.7006L69.7487 49.7016Z" fill="#211D1D" style="fill:color(display-p3 0.1255 0.1137 0.1137)"/><path d="M53.6057 46.9216C53.426 46.9215 53.2534 46.852 53.1237 46.7276C53.0613 46.6666 53.0116 46.5939 52.9774 46.5135C52.9432 46.4332 52.9253 46.3469 52.9247 46.2596C52.9247 45.3156 53.4507 44.8126 53.8337 44.4576C54.1777 44.1356 54.3297 43.9746 54.3297 43.6076C54.3297 43.2416 54.1777 43.0826 53.8337 42.7576C53.4507 42.3966 52.9247 41.9016 52.9247 40.9576C52.9247 40.0146 53.4507 39.5116 53.8337 39.1576C54.1777 38.8356 54.3297 38.6756 54.3297 38.3086C54.3297 37.9426 54.1777 37.7846 53.8337 37.4596C53.4507 37.0986 52.9247 36.6036 52.9247 35.6596C52.9247 34.7156 53.4507 34.2126 53.8337 33.8596C54.1777 33.5376 54.3297 33.3776 54.3297 33.0126C54.325 32.9224 54.3392 32.8323 54.3714 32.7479C54.4036 32.6635 54.4531 32.5868 54.5167 32.5226C54.5809 32.4565 54.6579 32.404 54.743 32.3684C54.8281 32.3328 54.9195 32.3149 55.0117 32.3156C55.1036 32.3158 55.1945 32.3341 55.2792 32.3694C55.364 32.4048 55.441 32.4565 55.5057 32.5216C55.5686 32.5863 55.6176 32.6631 55.6498 32.7473C55.682 32.8316 55.6966 32.9215 55.6927 33.0116C55.6927 33.9546 55.1657 34.4496 54.7827 34.8116C54.4387 35.1316 54.2867 35.2936 54.2867 35.6596C54.2867 36.0266 54.4387 36.1856 54.7827 36.5086C55.1657 36.8696 55.6927 37.3666 55.6927 38.3086C55.6927 39.2506 55.1657 39.7556 54.7827 40.1086C54.4387 40.4306 54.2867 40.5916 54.2867 40.9586C54.2867 41.3246 54.4387 41.4836 54.7827 41.8066C55.1657 42.1696 55.6927 42.6646 55.6927 43.6086C55.6927 44.5516 55.1657 45.0556 54.7827 45.4086C54.4387 45.7306 54.2867 45.8916 54.2867 46.2586C54.2869 46.3463 54.2692 46.433 54.2349 46.5137C54.2005 46.5943 54.1501 46.6671 54.0867 46.7276C53.9582 46.8531 53.7853 46.9228 53.6057 46.9216ZM67.4697 46.9216C67.2901 46.9215 67.1177 46.8516 66.9887 46.7266C66.9259 46.666 66.8759 46.5935 66.8416 46.5133C66.8072 46.4331 66.7893 46.3469 66.7887 46.2596C66.7887 45.3156 67.3137 44.8126 67.6987 44.4576C68.0427 44.1356 68.1947 43.9746 68.1947 43.6076C68.1947 43.2416 68.0427 43.0826 67.6987 42.7576C67.3137 42.3966 66.7887 41.9016 66.7887 40.9576C66.7887 40.0146 67.3137 39.5116 67.6987 39.1576C68.0427 38.8356 68.1947 38.6756 68.1947 38.3086C68.1947 37.9426 68.0427 37.7846 67.6987 37.4606C67.3137 37.0986 66.7887 36.6036 66.7887 35.6606C66.7887 34.7166 67.3137 34.2126 67.6987 33.8596C68.0427 33.5376 68.1947 33.3776 68.1947 33.0126C68.1947 32.8366 68.2667 32.6686 68.3947 32.5436C68.5235 32.4184 68.6961 32.3483 68.8757 32.3483C69.0553 32.3483 69.2279 32.4184 69.3567 32.5436C69.4847 32.6686 69.5567 32.8366 69.5567 33.0126C69.5567 33.9546 69.0307 34.4496 68.6467 34.8106C68.3027 35.1326 68.1507 35.2936 68.1507 35.6606C68.1507 36.0266 68.3007 36.1856 68.6457 36.5086C69.0307 36.8696 69.5557 37.3666 69.5557 38.3086C69.5557 39.2506 69.0307 39.7556 68.6457 40.1086C68.3027 40.4306 68.1507 40.5916 68.1507 40.9586C68.1507 41.3246 68.3007 41.4836 68.6457 41.8066C69.0307 42.1696 69.5557 42.6646 69.5557 43.6086C69.5557 44.5516 69.0307 45.0556 68.6477 45.4086C68.3027 45.7306 68.1517 45.8916 68.1517 46.2586C68.1514 46.3462 68.1336 46.4328 68.0992 46.5134C68.0649 46.594 68.0147 46.6668 67.9517 46.7276C67.8223 46.8524 67.6495 46.9219 67.4697 46.9216ZM77.6767 58.7476C77.6667 57.8346 76.8507 56.5066 70.1467 55.4426C65.6397 54.7206 59.6757 54.3266 53.3447 54.3266C47.0137 54.3266 41.0077 54.7126 36.4877 55.4136C29.7127 56.4636 28.8947 57.7876 28.8857 58.6996V58.7136C28.8857 58.8846 28.9177 59.0536 28.9817 59.2136C29.6273 62.3047 30.8872 65.2347 32.6867 67.8296C32.4297 69.5176 31.6957 70.8096 30.4827 71.6676C27.8387 73.5496 23.7857 72.8306 23.7467 72.8216C23.6052 72.796 23.4593 72.8145 23.3287 72.8746C23.1995 72.9334 23.0921 73.0313 23.0217 73.1546C22.9523 73.2769 22.9245 73.4184 22.9425 73.5579C22.9605 73.6973 23.0234 73.8271 23.1217 73.9276C29.0417 80.0366 36.5757 79.0276 41.2657 75.4696C46.3522 78.2049 52.2186 79.1261 57.8987 78.0816C67.9267 76.2396 75.6137 68.8626 77.5897 59.2396C77.6495 59.0857 77.6793 58.9218 77.6777 58.7566V58.7466L77.6767 58.7476ZM57.6417 76.7776C52.1274 77.7913 46.4322 76.8431 41.5437 74.0976C39.2537 72.7996 38.2147 71.5936 38.1967 71.5736C38.1405 71.5035 38.0709 71.4452 37.9919 71.4023C37.9129 71.3594 37.8262 71.3326 37.7367 71.3236C37.5557 71.304 37.3742 71.3557 37.2307 71.4676C37.1614 71.5227 37.1037 71.591 37.0611 71.6686C37.0185 71.7462 36.9919 71.8316 36.9827 71.9196C36.9742 72.0078 36.9838 72.0967 37.011 72.181C37.0381 72.2653 37.0823 72.3431 37.1407 72.4096C37.1817 72.4596 38.0647 73.5026 40.0007 74.7296C36.7817 76.9456 30.9587 78.7326 25.5007 74.2926C27.1297 74.3006 29.4397 74.0506 31.2837 72.7426C32.8657 71.6166 33.8077 69.9336 34.0787 67.7396C34.1008 67.5789 34.0599 67.4159 33.9647 67.2846C32.5272 65.258 31.4379 63.0058 30.7417 60.6206C31.8657 61.1136 33.6557 61.6136 36.4897 62.0666C41.0607 62.8066 47.0497 63.2126 53.3547 63.2126C59.6587 63.2126 65.6337 62.8146 70.1517 62.0876C72.9617 61.6376 74.7287 61.1426 75.8447 60.6526C73.4697 68.9206 66.5287 75.1456 57.6417 76.7776Z" fill="#211D1D" style="fill:color(display-p3 0.1255 0.1137 0.1137)"/></svg>