<svg viewBox="0 0 101 101" fill="none" xmlns="http://www.w3.org/2000/svg"><path d="M33.578 55.0963C29.0372 62.146 27.4456 68.3069 30.0575 70.9188C34.018 74.8794 46.1449 69.1717 57.1465 58.1702C58.2346 57.082 59.2702 55.983 60.251 54.8817C60.6933 55.6042 61.0786 56.3026 61.4026 56.9682C61.3917 56.9813 61.3807 56.9945 61.3698 57.0054C62.6703 59.718 62.9527 61.8965 61.9105 62.943L61.9193 62.9517C59.6708 65.2002 56.9451 66.6846 54.066 67.4005C61.1136 71.9391 67.2745 73.5307 69.8842 70.9188C69.9149 70.8882 69.9455 70.8575 69.974 70.8269L70.0637 70.9166C73.0522 67.7333 70.1688 59.6129 63.4935 50.9737C70.1623 42.3082 72.9975 34.1857 69.893 31.0811C67.2832 28.4692 61.1224 30.0609 54.0748 34.5994C56.9538 35.3154 59.6796 36.7998 61.9281 39.0482L61.9237 39.0526C63.2242 40.3531 62.471 43.4138 60.2488 47.0744C59.2877 45.9995 58.274 44.9267 57.2122 43.8648C50.0748 36.7275 42.4646 31.8146 36.9102 30.3171C33.8735 29.4895 31.4499 29.6799 30.0487 31.0811C27.4368 33.6931 29.0285 39.8539 33.5692 46.9037C34.2851 44.0247 35.7673 41.2989 38.018 39.0482L38.0202 39.0526C38.0508 39.022 38.0815 38.9935 38.1143 38.965L38.145 38.9979C39.3579 37.9317 41.9173 38.4462 45.0262 40.1451C47.7454 41.6383 50.8805 44.0312 53.9062 47.0569C55.2177 48.3684 56.4109 49.6995 57.4618 51.0087C56.413 52.3114 55.2264 53.6382 53.9215 54.943C47.325 61.5396 40.2117 65.1214 38.0333 62.9452L38.0268 62.9517C35.7783 60.7011 34.2939 57.9753 33.578 55.0963Z" fill="#211D1D" style="fill:color(display-p3 0.1255 0.1137 0.1137)"/></svg>