<svg xmlns="http://www.w3.org/2000/svg" viewBox="0 0 101 101" fill="none"><path d="M69.677 65.998C69.5104 66.1126 69.3395 66.223 69.1645 66.3251L63.4308 69.6649L40.9481 56.5703V45.4175L63.4204 32.3333L69.1645 35.6794C69.3666 35.796 69.5604 35.9231 69.75 36.0565L53.6906 45.3925V45.3717L47.2569 49.1344V52.9638L53.6906 56.7203V52.918L72.9585 41.6964C72.9793 41.9152 72.9877 42.136 72.9877 42.359V49.1136L60.1577 56.6245V60.4789L69.6791 66.0001L69.677 65.998Z" fill="#211D1D" style="fill:color(display-p3 0.1255 0.1137 0.1137)"/><path d="M56.9847 28.5831L54.3241 27.033C53.1636 26.3562 51.8443 25.9995 50.5009 25.9995C49.1575 25.9995 47.8382 26.3562 46.6777 27.033L31.833 35.6773C30.6683 36.3595 29.7026 37.335 29.0322 38.5066C28.3617 39.6782 28.01 41.005 28.012 42.3549V59.6435C28.012 62.3978 29.4704 64.9459 31.8351 66.3231L46.6757 74.9674C47.8362 75.644 49.1555 76.0006 50.4988 76.0006C51.8422 76.0006 53.1615 75.644 54.322 74.9674L56.9951 73.411L34.5124 60.3185V41.6756L34.5207 41.6819L34.5124 41.6715L56.9847 28.5831Z" fill="#211D1D" style="fill:color(display-p3 0.1255 0.1137 0.1137)"/></svg>