<svg viewBox="0 0 101 101" fill="none" xmlns="http://www.w3.org/2000/svg"><path fill-rule="evenodd" clip-rule="evenodd" d="M34.8055 32.6921C34.1433 32.03 34.1787 30.9407 34.9238 30.3734C44.1146 23.3757 56.885 23.3757 66.0759 30.3734C66.8208 30.9407 66.8562 32.03 66.1941 32.6921L57.8849 41.0013C57.3254 41.561 56.4482 41.6211 55.7529 41.2434C52.4804 39.4663 48.5193 39.4663 45.2468 41.2434C44.5512 41.6211 43.6742 41.561 43.1147 41.0013L34.8055 32.6921ZM68.8074 35.3061C69.4695 34.644 70.5588 34.6794 71.1261 35.4244C78.124 44.6151 78.124 57.3856 71.1261 66.5764C70.5588 67.3215 69.4695 67.3569 68.8074 66.6948L60.4983 58.3856C59.9387 57.8259 59.8786 56.949 60.2562 56.2536C62.0333 52.9811 62.0333 49.02 60.2562 45.7475C59.8786 45.0519 59.9387 44.1749 60.4983 43.6152L68.8074 35.3061ZM57.8849 60.9985C57.3254 60.439 56.4482 60.3788 55.7529 60.7564C52.4804 62.5335 48.5193 62.5335 45.2468 60.7564C44.5512 60.3788 43.6742 60.439 43.1147 60.9985L34.8055 69.3077C34.1433 69.9699 34.1787 71.0592 34.9238 71.6264C44.1146 78.6242 56.885 78.6242 66.0759 71.6264C66.8208 71.0592 66.8562 69.9699 66.1941 69.3077L57.8849 60.9985ZM40.5015 43.6149C41.061 44.1745 41.1212 45.0516 40.7436 45.747C38.9665 49.0195 38.9665 52.9806 40.7436 56.2531C41.1212 56.9486 41.061 57.8256 40.5015 58.3852L32.1923 66.6943C31.5301 67.3566 30.4408 67.3212 29.8736 66.5761C22.8758 57.3853 22.8758 44.6148 29.8736 35.424C30.4408 34.679 31.5301 34.6436 32.1923 35.3057L40.5015 43.6149Z" fill="#211D1D" style="fill:color(display-p3 0.1255 0.1137 0.1137)"/></svg>