<svg width="101" height="101" viewBox="0 0 101 101" fill="none" xmlns="http://www.w3.org/2000/svg"><path fill-rule="evenodd" clip-rule="evenodd" d="M31.4539 64.2909C31.3413 64.092 31.3051 63.8576 31.3521 63.6331C31.3992 63.4085 31.5264 63.2097 31.7089 63.0751L35.0829 60.5971C35.3697 60.3861 35.727 60.2998 36.0763 60.3572C36.4255 60.4146 36.738 60.6111 36.9452 60.9033C36.9725 60.9405 36.9953 60.9822 37.018 61.0193C37.1061 61.1737 37.1634 61.3443 37.1865 61.5213C37.2097 61.6983 37.1983 61.8782 37.1531 62.0507C37.1078 62.2232 37.0295 62.3849 36.9227 62.5264C36.8159 62.668 36.6828 62.7866 36.5308 62.8756L36.4079 62.9405L32.615 64.6807C32.409 64.7745 32.1763 64.787 31.9617 64.7158C31.7472 64.6447 31.5663 64.4949 31.4539 64.2956" fill="white"/><path fill-rule="evenodd" clip-rule="evenodd" d="M37.0162 40.5828C36.9211 40.7452 36.7945 40.8862 36.6442 40.9971C36.4939 41.108 36.323 41.1865 36.142 41.2279C35.9597 41.2687 35.771 41.27 35.5882 41.2316C35.4055 41.1932 35.2326 41.1161 35.081 41.0051L31.7071 38.5225C31.5248 38.3873 31.3981 38.1881 31.3516 37.9632C31.3051 37.7384 31.3421 37.504 31.4554 37.3054C31.5687 37.1067 31.7503 36.958 31.965 36.8879C32.1797 36.8179 32.4123 36.8315 32.6177 36.9261L36.4106 38.6617C36.5704 38.734 36.7146 38.8378 36.835 38.967C36.9553 39.0963 37.0495 39.2484 37.1121 39.4148C37.1747 39.5812 37.2045 39.7585 37.1997 39.9367C37.195 40.1148 37.1558 40.2902 37.0845 40.4529C37.0845 40.4947 37.0435 40.5364 37.0207 40.5782" fill="white"/><path d="M40.4328 69.4414L40.0503 81.0009H29.3956C27.965 80.9997 26.5933 80.42 25.5817 79.389C24.5701 78.358 24.0012 76.96 24 75.5019V73.0425C29.667 73.0509 35.27 71.823 40.4328 69.4414Z" fill="#8B8A89" style="fill:color(display-p3 0.5451 0.5412 0.5373)"/><path fill-rule="evenodd" clip-rule="evenodd" d="M69.1206 64.2894C69.0082 64.4888 68.8273 64.6386 68.6128 64.7097C68.3982 64.7809 68.1655 64.7684 67.9595 64.6746L64.1666 62.9344C63.8454 62.7892 63.5939 62.5198 63.4676 62.1857C63.3412 61.8515 63.3502 61.4798 63.4927 61.1524L63.561 61.0179C63.6478 60.8626 63.764 60.7264 63.9029 60.6172C64.0417 60.508 64.2005 60.428 64.3699 60.3818C64.5393 60.3356 64.716 60.3242 64.8898 60.3481C65.0636 60.3721 65.231 60.4309 65.3823 60.5213L65.4962 60.5956L68.8701 63.0736C69.0527 63.2082 69.1798 63.407 69.2269 63.6316C69.274 63.8561 69.2377 64.0905 69.1251 64.2894" fill="#F7F6F6" style="fill:color(display-p3 0.9686 0.9686 0.9647)"/><path fill-rule="evenodd" clip-rule="evenodd" d="M68.8697 38.5271L65.4957 41.0098C65.2065 41.2196 64.8473 41.3037 64.4972 41.2437C64.1471 41.1837 63.8348 40.9843 63.6289 40.6896L63.5651 40.5875C63.4751 40.4352 63.4154 40.2663 63.3896 40.0905C63.3638 39.9147 63.3723 39.7355 63.4146 39.563C63.4569 39.3906 63.5322 39.2283 63.6361 39.0856C63.7401 38.9429 63.8707 38.8224 64.0204 38.7313C64.062 38.7035 64.1062 38.6802 64.1525 38.6617L67.9454 36.9261C68.1508 36.8315 68.3834 36.8179 68.5981 36.8879C68.8128 36.958 68.9944 37.1067 69.1077 37.3054C69.221 37.504 69.258 37.7384 69.2115 37.9632C69.165 38.1881 69.0383 38.3873 68.856 38.5225" fill="#F7F6F6" style="fill:color(display-p3 0.9686 0.9686 0.9647)"/><path fill-rule="evenodd" clip-rule="evenodd" d="M72.9323 50.5625C72.9332 50.7977 72.8616 51.0272 72.7276 51.2187C72.5936 51.4102 72.404 51.554 72.1856 51.6298L70.7331 52.1356C70.3252 52.2712 69.8814 52.2374 69.4978 52.0416C69.1143 51.8459 68.8219 51.5039 68.6841 51.0899C68.5463 50.6759 68.5741 50.2232 68.7617 49.8299C68.9492 49.4367 69.2812 49.1347 69.6858 48.9894C70.0256 48.8733 70.3933 48.8733 70.7331 48.9894L72.1856 49.4952C72.4036 49.5716 72.5928 49.7155 72.7267 49.9069C72.8606 50.0983 72.9325 50.3275 72.9323 50.5625Z" fill="#F7F6F6" style="fill:color(display-p3 0.9686 0.9686 0.9647)"/><path fill-rule="evenodd" clip-rule="evenodd" d="M38.7253 20H47.0942C51.831 19.9921 56.5012 21.1359 60.7173 23.3364V23.3364C61.6052 23.8005 62.4616 24.3058 63.2949 24.8534C67.503 27.6179 70.9629 31.4147 73.3575 35.8958C75.752 40.377 77.0045 45.399 77.0002 50.5015C77.0007 56.088 75.4956 61.5673 72.6492 66.3415C69.8027 71.1156 65.7242 75.0013 60.8589 77.5743L59.9482 50.0746V49.7823C60.0169 49.7499 60.0824 49.711 60.144 49.6663C61.1958 49.0212 61.9243 47.5548 61.9243 45.861C61.9251 45.6595 61.9144 45.4581 61.8925 45.2578C61.7103 43.5036 60.7496 42.1115 59.5156 41.7681C59.339 40.548 58.9224 39.3768 58.2908 38.3248C58.5941 38.2901 58.8856 38.1851 59.1429 38.0178C59.4002 37.8504 59.6165 37.6253 59.7752 37.3596C60.0783 36.9031 60.4076 36.4425 60.751 35.9622C61.8005 34.4942 62.9808 32.8433 63.9414 30.5705L63.9961 30.4406C64.0811 30.2536 64.1137 30.0463 64.0904 29.8415C64.0671 29.6368 63.9888 29.4426 63.864 29.2804C63.7973 29.1812 63.7122 29.096 63.6136 29.0299C63.3957 28.8746 63.1305 28.8037 62.8658 28.8301C62.6012 28.8565 62.3545 28.9783 62.1702 29.1737C61.2901 30.0278 60.3525 30.5703 59.4768 31.077C58.4588 31.666 57.5244 32.2066 56.8611 33.1321C56.7609 32.9068 56.634 32.6948 56.4832 32.501C56.1323 32.0479 55.6567 31.7118 55.1173 31.5358V31.5358C54.4971 31.3221 53.8202 31.3559 53.2229 31.6292C53.0502 31.0353 52.6938 30.5141 52.2068 30.1435C51.7198 29.7729 51.1283 29.5727 50.5205 29.5727C49.9127 29.5727 49.3212 29.7729 48.8342 30.1435C48.3472 30.5141 47.9908 31.0353 47.8182 31.6292C47.2565 31.387 46.632 31.3413 46.0422 31.4991C45.4524 31.6569 44.9304 32.0095 44.558 32.5016C44.403 32.6924 44.2757 32.905 44.1801 33.1327C43.4614 32.1316 42.425 31.5071 41.3096 30.8349C40.3826 30.2763 39.4011 29.6848 38.5022 28.817C38.471 28.7837 38.4375 28.7527 38.402 28.7242C38.234 28.594 38.0223 28.537 37.8131 28.5657C37.604 28.5944 37.4146 28.7065 37.2864 28.8774C37.1161 29.1113 37.0102 29.3874 36.9798 29.677C36.9494 29.9667 36.9955 30.2594 37.1134 30.5247C38.0807 32.8506 39.2717 34.5055 40.3304 35.9766C40.6722 36.4515 41.0002 36.9073 41.3024 37.3602C41.458 37.6238 41.6706 37.8477 41.9238 38.0149C42.1771 38.1822 42.4644 38.2884 42.764 38.3255C42.1274 39.3771 41.7032 40.5478 41.5164 41.7687C40.1459 42.1492 39.1077 43.8338 39.1077 45.8617C39.1077 47.6622 39.9319 49.2028 41.0839 49.7829L40.4327 69.4401C35.27 71.8218 29.667 73.0496 24 73.0412V35.0121C27.9054 35.0097 31.6502 33.4271 34.4113 30.6122C37.1724 27.7973 38.7241 23.9803 38.7253 20ZM37.1855 40.0498C37.2051 39.8615 37.1867 39.6711 37.1316 39.4902C37.0751 39.3089 36.9818 39.1417 36.8579 38.9994C36.734 38.8571 36.5822 38.7429 36.4122 38.6642L32.6193 36.9287C32.4139 36.834 32.1813 36.8204 31.9666 36.8905C31.7519 36.9606 31.5703 37.1093 31.457 37.3079C31.3437 37.5065 31.3067 37.741 31.3532 37.9658C31.3997 38.1906 31.5264 38.3899 31.7087 38.525L35.0827 41.0077C35.2343 41.1186 35.4071 41.1958 35.5898 41.2342C35.7726 41.2725 35.9613 41.2713 36.1436 41.2304C36.3246 41.1891 36.4955 41.1105 36.6458 40.9996C36.7961 40.8887 36.9227 40.7478 37.0178 40.5854C37.1089 40.4203 37.1659 40.2381 37.1855 40.0498ZM36.8551 62.6064C36.9798 62.4649 37.074 62.2983 37.1316 62.1174H37.1271C37.1822 61.9366 37.2005 61.7462 37.1809 61.5579C37.1614 61.3696 37.1043 61.1873 37.0132 61.0222C37.007 61.0121 37.0008 61.0016 36.9945 60.9909C36.9777 60.9626 36.9602 60.9332 36.9404 60.9062C36.7332 60.614 36.4207 60.4175 36.0715 60.3601C35.7222 60.3027 35.3649 60.3889 35.0781 60.6L31.7041 63.078C31.5154 63.2106 31.3827 63.4108 31.3324 63.6387C31.2822 63.8667 31.3182 64.1055 31.4331 64.3076C31.5481 64.5097 31.7336 64.6602 31.9526 64.729C32.1717 64.7979 32.4081 64.78 32.6148 64.679L36.4077 62.9388C36.578 62.8611 36.7304 62.7478 36.8551 62.6064ZM28.8492 51.6345L30.2972 52.1403C30.637 52.2563 31.0046 52.2563 31.3444 52.1403C31.5495 52.0721 31.7392 51.9632 31.9027 51.8198C32.0661 51.6763 32.2 51.5013 32.2966 51.3047C32.3932 51.1082 32.4505 50.894 32.4653 50.6747C32.4801 50.4554 32.452 50.2353 32.3828 50.0271C32.3135 49.819 32.2043 49.6269 32.0617 49.462C31.919 49.2971 31.7457 49.1628 31.5517 49.0667C31.3577 48.9706 31.1469 48.9147 30.9316 48.9022C30.7162 48.8897 30.5006 48.9209 30.2972 48.994L28.8492 49.4998C28.6307 49.5758 28.4409 49.7195 28.3065 49.9109C28.1721 50.1023 28.0998 50.3318 28.0998 50.5672C28.0998 50.8025 28.1721 51.032 28.3065 51.2234C28.4409 51.4148 28.6307 51.5585 28.8492 51.6345ZM70.7349 52.135L72.1874 51.6292C72.406 51.5532 72.5958 51.4095 72.7301 51.2181C72.8645 51.0267 72.9368 50.7972 72.9368 50.5619C72.9368 50.3265 72.8645 50.0971 72.7301 49.9057C72.5958 49.7143 72.406 49.5705 72.1874 49.4946L70.7349 48.9887C70.3951 48.8727 70.0275 48.8727 69.6877 48.9887C69.2831 49.1341 68.951 49.4361 68.7635 49.8293C68.576 50.2225 68.5481 50.6752 68.6859 51.0892C68.8237 51.5033 69.1161 51.8452 69.4997 52.041C69.8832 52.2368 70.3271 52.2705 70.7349 52.135ZM68.6152 64.7088C68.8297 64.6377 69.0107 64.4879 69.123 64.2885H69.1276C69.2402 64.0896 69.2765 63.8552 69.2294 63.6307C69.1823 63.4061 69.0552 63.2073 68.8726 63.0727L65.4986 60.5947L65.3848 60.5204C65.2335 60.43 65.0661 60.3712 64.8923 60.3472C64.7185 60.3233 64.5418 60.3347 64.3724 60.3809C64.203 60.4271 64.0442 60.5071 63.9054 60.6163C63.7665 60.7255 63.6503 60.8617 63.5635 61.017L63.4952 61.1515C63.3527 61.4789 63.3437 61.8506 63.47 62.1848C63.5964 62.5189 63.8479 62.7883 64.1691 62.9335L67.962 64.6737C68.1679 64.7675 68.4007 64.78 68.6152 64.7088ZM63.7216 39.0006C63.5969 39.1421 63.5027 39.3087 63.4451 39.4896C63.3891 39.6715 63.3711 39.8633 63.3922 40.0528C63.4134 40.2422 63.4733 40.425 63.5681 40.5894L63.6318 40.6915C63.8377 40.9862 64.1501 41.1856 64.5002 41.2456C64.8503 41.3057 65.2094 41.2215 65.4986 41.0117L68.8726 38.529C69.0549 38.3939 69.1816 38.1946 69.2281 37.9698C69.2746 37.745 69.2376 37.5106 69.1243 37.3119C69.011 37.1133 68.8294 36.9646 68.6147 36.8945C68.4 36.8244 68.1674 36.838 67.962 36.9327L64.1691 38.6682C63.9988 38.7459 63.8463 38.8592 63.7216 39.0006Z" fill="#211D1D" style="fill:color(display-p3 0.1255 0.1137 0.1137)"/><path fill-rule="evenodd" clip-rule="evenodd" d="M31.7742 51.9113C31.5635 52.0658 31.3197 52.1666 31.0631 52.2053C30.8064 52.2441 30.5444 52.2196 30.2989 52.1341L28.851 51.6283C28.6324 51.5523 28.4426 51.4086 28.3082 51.2172C28.1738 51.0258 28.1016 50.7963 28.1016 50.5609C28.1016 50.3256 28.1738 50.0961 28.3082 49.9047C28.4426 49.7133 28.6324 49.5696 28.851 49.4936L30.2989 48.9878C30.6692 48.8587 31.0727 48.8698 31.4357 49.0189C31.7987 49.168 32.0969 49.4452 32.2759 49.7999C32.4549 50.1547 32.5027 50.5632 32.4106 50.9508C32.3185 51.3385 32.0926 51.6794 31.7742 51.9113Z" fill="#F7F6F6" style="fill:color(display-p3 0.9686 0.9686 0.9647)"/><path d="M63.8502 29.2813C63.7835 29.182 63.6984 29.0969 63.5998 29.0307C63.3834 28.8805 63.1221 28.8125 62.8616 28.8388C62.601 28.8651 62.3578 28.984 62.1746 29.1746C60.2714 31.0308 58.0767 31.4113 56.8655 33.133C56.7653 32.9076 56.6384 32.6957 56.4876 32.5019C56.1367 32.0487 55.661 31.7127 55.1216 31.5366C54.5013 31.323 53.8247 31.3561 53.2274 31.6294C53.0548 31.0355 52.6984 30.5144 52.2114 30.1438C51.7244 29.7732 51.1329 29.5729 50.5251 29.5729C49.9173 29.5729 49.3258 29.7732 48.8388 30.1438C48.3518 30.5144 47.9954 31.0355 47.8227 31.6294C47.2611 31.3872 46.6366 31.3415 46.0467 31.4993C45.4569 31.6572 44.935 32.0097 44.5626 32.5019C44.4076 32.6927 44.2803 32.9052 44.1847 33.133C42.8688 31.3 40.4874 30.7292 38.5067 28.8173C38.4371 28.7376 38.3526 28.6727 38.2582 28.6265C38.1638 28.5803 38.0613 28.5536 37.9567 28.548C37.8522 28.5424 37.7475 28.558 37.6489 28.5938C37.5502 28.6297 37.4596 28.6851 37.3821 28.757C37.341 28.7926 37.3044 28.8331 37.2728 28.8776C37.1024 29.1115 36.9966 29.3876 36.9661 29.6773C36.9357 29.9669 36.9819 30.2596 37.0998 30.525C38.3792 33.6017 40.0503 35.495 41.2888 37.3605C41.4462 37.6263 41.6616 37.8516 41.9182 38.019C42.1748 38.1864 42.4658 38.2913 42.7686 38.3257C42.132 39.3774 41.7078 40.548 41.521 41.769C40.155 42.1495 39.1123 43.834 39.1123 45.8619C39.1123 47.6624 39.9365 49.2031 41.0884 49.7832L40.4373 69.4404L40.0548 80.9999H47.0942C51.8311 81.0079 56.5015 79.8641 60.7176 77.6634L60.8769 77.5752L59.9708 50.0755V49.7832C60.0395 49.7508 60.1051 49.7119 60.1666 49.6671C61.2184 49.0221 61.947 47.5557 61.947 45.8619C61.9477 45.6604 61.937 45.4589 61.9151 45.2586C61.733 43.5045 60.7722 42.1124 59.5383 41.769C59.3565 40.5467 58.9319 39.3751 58.2907 38.3257C58.594 38.291 58.8855 38.186 59.1428 38.0186C59.4001 37.8513 59.6164 37.6262 59.775 37.3605C61.0044 35.5043 62.6664 33.5877 63.9413 30.5714L63.9959 30.4415C64.0809 30.2545 64.1136 30.0472 64.0903 29.8424C64.067 29.6377 63.9886 29.4435 63.8639 29.2813" fill="#F7F6F6" style="fill:color(display-p3 0.9686 0.9686 0.9647)"/><path d="M38.7253 20C38.7241 23.9803 37.1724 27.7972 34.4113 30.6122C31.6502 33.4271 27.9054 35.0096 24 35.0121V25.499C24.0012 24.041 24.5701 22.643 25.5817 21.612C26.5933 20.581 27.965 20.0012 29.3956 20H38.7253Z" fill="#8B8A89" style="fill:color(display-p3 0.5451 0.5412 0.5373)"/><path fill-rule="evenodd" clip-rule="evenodd" d="M53.2239 46.5467L51.7077 47.9667C51.5769 48.0925 51.4838 48.2534 51.4391 48.4308C51.3389 48.8392 51.1431 49.642 50.9837 50.403C50.9588 50.506 50.9 50.5971 50.8172 50.6613C50.7343 50.7255 50.6324 50.7588 50.5284 50.7557C50.4244 50.7588 50.3225 50.7255 50.2396 50.6613C50.1568 50.5971 50.098 50.506 50.0731 50.403L49.5904 48.4308C49.5479 48.2524 49.4544 48.0909 49.3218 47.9667L47.8055 46.5467C47.7207 46.4598 47.6731 46.3422 47.6731 46.2196C47.6731 46.097 47.7207 45.9794 47.8055 45.8924C47.8544 45.8391 47.9149 45.7983 47.9822 45.7733C48.0494 45.7483 48.1215 45.7399 48.1926 45.7486L50.4692 46.0641H50.5921L50.7697 46.0409L52.8688 45.7486C52.9617 45.7391 53.0552 45.7589 53.1366 45.8054C53.218 45.8519 53.2835 45.9228 53.3241 46.0084C53.3651 46.0979 53.377 46.1983 53.3582 46.2951C53.3394 46.3919 53.2907 46.48 53.2194 46.5467M55.496 46.027C55.5054 45.0294 55.7792 44.053 56.2883 43.2009C56.4192 42.9705 56.5 42.7141 56.5252 42.4491C56.5503 42.1841 56.5192 41.9166 56.434 41.6649L56.3293 41.7624C55.8667 42.1329 55.2967 42.3366 54.7084 42.3416C54.1201 42.3467 53.5468 42.1527 53.0782 41.7902C53.0782 42.7369 52.2313 43.535 51.1021 43.665C50.9854 43.6742 50.8682 43.6742 50.7515 43.665C49.472 43.665 48.4293 42.8111 48.4293 41.7577C47.9608 42.1203 47.3874 42.3142 46.7992 42.3092C46.2109 42.3041 45.6408 42.1004 45.1783 41.7299C45.0509 41.6216 44.9363 41.4986 44.8368 41.3633C44.6465 41.6415 44.5362 41.9683 44.5185 42.307C44.5008 42.6456 44.5764 42.9826 44.7366 43.2798C45.1793 44.1248 45.4078 45.0691 45.4014 46.027C45.4046 47.0243 45.1435 48.0039 44.6456 48.8624C44.461 49.1888 44.3783 49.5647 44.4084 49.9402C44.4385 50.3157 44.58 50.6729 44.814 50.9645C46.1208 52.5655 48.2108 53.8973 50.2097 54.0737H50.7014C53.0145 54.0737 54.8312 52.6073 56.1289 50.6768C56.3134 50.3972 56.4184 50.071 56.432 49.7343C56.4457 49.3977 56.3676 49.0637 56.2063 48.7696C55.759 47.9289 55.5242 46.9879 55.5233 46.0316" fill="#8B8A89" style="fill:color(display-p3 0.5451 0.5412 0.5373)"/><path fill-rule="evenodd" clip-rule="evenodd" d="M53.2227 46.5476L51.7064 47.9676C51.5757 48.0933 51.4825 48.2542 51.4378 48.4316C51.3376 48.84 51.1418 49.6428 50.9825 50.4039C50.9575 50.5068 50.8988 50.598 50.8159 50.6621C50.7331 50.7263 50.6311 50.7596 50.5271 50.7565C50.4231 50.7596 50.3212 50.7263 50.2384 50.6621C50.1555 50.598 50.0967 50.5068 50.0718 50.4039L49.5892 48.4316C49.5466 48.2533 49.4531 48.0918 49.3205 47.9676L47.8043 46.5476C47.7195 46.4606 47.6719 46.343 47.6719 46.2204C47.6719 46.0978 47.7195 45.9802 47.8043 45.8933C47.8532 45.84 47.9137 45.7992 47.9809 45.7742C48.0482 45.7492 48.1202 45.7407 48.1913 45.7494L50.4679 46.065H50.5909L50.7685 46.0418L52.8675 45.7494C52.9604 45.7399 53.0539 45.7598 53.1353 45.8063C53.2168 45.8528 53.2822 45.9236 53.3228 46.0093C53.3638 46.0987 53.3758 46.1991 53.3569 46.2959C53.3381 46.3927 53.2895 46.4809 53.2181 46.5476" fill="#211D1D" style="fill:color(display-p3 0.1255 0.1137 0.1137)"/></svg>