<svg viewBox="0 0 101 101" fill="none" xmlns="http://www.w3.org/2000/svg"><path d="M50.498 72.5209C50.498 73.8925 51.6082 75.0173 52.966 74.8773C65.0039 73.6367 74.3944 63.4208 74.3944 51.0014C74.3944 38.582 65.0039 28.3659 52.966 27.1252C51.6082 26.9845 50.498 28.1101 50.498 29.4816V36.1031C50.498 37.4745 51.6156 38.5604 52.9546 38.831C58.6038 39.9757 62.8583 44.989 62.8583 51.0014C62.8583 57.0134 58.6038 62.0269 52.9546 63.1715C51.6156 63.4421 50.498 64.5289 50.498 65.8995V72.5209ZM43.0821 31.5988C43.0821 29.9103 41.4362 28.7201 39.9293 29.4675C32.0328 33.3849 26.6016 41.5558 26.6016 51.0014C26.6016 60.4468 32.0328 68.6177 39.9293 72.5351C41.4362 73.2824 43.0821 72.0922 43.0821 70.4038V31.5988Z" fill="#211D1D" style="fill:color(display-p3 0.1255 0.1137 0.1137)"/></svg>