<svg viewBox="0 0 101 101" fill="none" xmlns="http://www.w3.org/2000/svg"><path d="M74.0009 50.0004C74.0009 62.7593 63.6577 73.1024 50.8989 73.1024C38.14 73.1024 27.7969 62.7593 27.7969 50.0004L34.3482 50.0004C34.3483 59.1411 41.7582 66.551 50.8989 66.551C60.0396 66.551 67.4496 59.141 67.4496 50.0003C67.4496 40.8597 60.0396 33.4497 50.8989 33.4497H27.7969V26.8984H50.8989C63.6577 26.8984 74.0009 37.2416 74.0009 50.0004Z" fill="#201D1D" style="fill:color(display-p3 0.1255 0.1137 0.1137)"></path><path d="M27.7969 34.1393V40.3458H50.8989C56.231 40.3458 60.5535 44.6683 60.5535 50.0004C60.5535 55.3325 56.231 59.655 50.8989 59.655C45.5669 59.655 41.2444 55.3325 41.2444 50.0004H35.0378C35.0379 58.7602 42.1391 65.8614 50.8989 65.8614C59.6587 65.8614 66.76 58.7602 66.76 50.0003C66.76 41.2405 59.6587 34.1393 50.8989 34.1393H27.7969Z" fill="#201D1D" style="fill:color(display-p3 0.1255 0.1137 0.1137)"></path><path d="M27.7969 41.0355V46.5524H50.8989C52.8032 46.5524 54.3469 48.0961 54.3469 50.0004C54.3469 51.9047 52.8032 53.4485 50.8989 53.4485C48.9946 53.4485 47.4508 51.9047 47.4508 50.0004L41.934 50.0004C41.934 54.9516 45.9477 58.9654 50.8989 58.9654C55.8501 58.9654 59.8639 54.9516 59.8639 50.0004C59.8639 45.0492 55.8501 41.0355 50.8989 41.0355H27.7969Z" fill="#201D1D" style="fill:color(display-p3 0.1255 0.1137 0.1137)"></path></svg>