<svg viewBox="0 0 101 101" fill="none" xmlns="http://www.w3.org/2000/svg"><path d="M68.4036 27H52.8455C40.4278 27 30.3612 37.2155 30.3611 49.8174V55.8047C30.3611 55.8785 30.39 55.9493 30.4414 56.0015C30.4929 56.0537 30.5626 56.0831 30.6354 56.0831H33.7726C33.9242 56.0831 34.0469 55.9584 34.0469 55.8047L34.047 49.8174C34.0473 39.2815 42.4634 30.7406 52.8456 30.7406H73.8438C74.0539 30.7406 74.185 30.5112 74.0733 30.3307C72.8781 28.4008 71.0886 27.0015 68.4085 27H68.4036Z" fill="#211D1D" style="fill:color(display-p3 0.1255 0.1137 0.1137)"/><path d="M76.0717 36.2073C76.0609 36.143 76.0279 36.0846 75.9786 36.0425C75.9294 36.0005 75.867 35.9775 75.8027 35.9777H52.8463C45.1106 35.9777 38.8397 42.3415 38.8397 50.1918V55.8049C38.8397 55.8788 38.8686 55.9496 38.92 56.0018C38.9714 56.054 39.0412 56.0833 39.114 56.0833H41.4283C41.5724 56.0833 41.7151 56.0545 41.8482 55.9986C41.9814 55.9426 42.1023 55.8606 42.2042 55.7572C42.3061 55.6538 42.387 55.531 42.4421 55.3959C42.4972 55.2608 42.5256 55.116 42.5256 54.9697V50.1918C42.5256 44.4074 47.1463 39.7182 52.8463 39.7182H76.1497C76.3065 39.7182 76.4315 39.5853 76.4225 39.4264C76.3715 38.5234 76.2708 37.4028 76.0717 36.2073ZM33.4421 73.9008H49.0001C61.4178 73.9008 71.4844 63.6851 71.4845 51.0834V45.0961C71.4845 45.0223 71.4556 44.9515 71.4042 44.8993C71.3527 44.847 71.2829 44.8177 71.2102 44.8177H68.0729C68.0001 44.8177 67.9303 44.847 67.8789 44.8993C67.8275 44.9515 67.7986 45.0223 67.7986 45.0961V51.0834C67.7984 61.6192 59.3822 70.1602 49.0002 70.1602H28.0022C27.792 70.1602 27.6607 70.3895 27.7725 70.5701C28.9676 72.5 30.7571 73.8991 33.4373 73.9008H33.4421Z" fill="#211D1D" style="fill:color(display-p3 0.1255 0.1137 0.1137)"/><path d="M25.7741 64.6935C25.7962 64.8265 25.9103 64.9232 26.0432 64.9232H48.9995C56.7352 64.9232 63.0062 58.5593 63.0062 50.709V45.0959C63.0062 45.022 62.9773 44.9512 62.9258 44.899C62.8744 44.8468 62.8046 44.8175 62.7319 44.8175H60.4176C60.2735 44.8175 60.1308 44.8463 59.9976 44.9022C59.8645 44.9582 59.7435 45.0402 59.6416 45.1436C59.5397 45.247 59.4589 45.3698 59.4037 45.5049C59.3486 45.64 59.3202 45.7849 59.3202 45.9311V50.709C59.3202 56.4934 54.6995 61.1826 48.9995 61.1826H25.6961C25.5394 61.1826 25.4143 61.3155 25.4233 61.4742C25.4743 62.3775 25.5749 63.4979 25.7741 64.6935Z" fill="#211D1D" style="fill:color(display-p3 0.1255 0.1137 0.1137)"/></svg>