<svg xmlns="http://www.w3.org/2000/svg" viewBox="0 0 101 101" fill="none"><path d="M43.3187 26.379V26.2803L43.7864 25.877H50.9947V22.4445H43.7864L42.7094 23.4656V24.8901L42.2033 25.2934H42.1261C42.5464 25.6367 42.9156 26.0229 43.3187 26.379Z" fill="#211D1D" style="fill:color(display-p3 0.1255 0.1137 0.1137)"/><path d="M42.3205 25.2467H40.8959L39.9263 26.2722V27.6409L40.8959 28.6621H42.3205L43.3418 27.6409V26.2722L42.3205 25.2467Z" fill="#211D1D" style="fill:color(display-p3 0.1255 0.1137 0.1137)"/><path d="M47.0427 45.4666H45.6183L44.6487 46.492V50.0623L45.6183 51.0836H47.0427L48.0639 50.0623V46.492L47.0427 45.4666Z" fill="#211D1D" style="fill:color(display-p3 0.1255 0.1137 0.1137)"/><path d="M42.2872 51.1573H40.8628L39.8932 52.1786V53.5471L40.8628 54.5725H42.2872L43.3084 53.5471V52.1786L42.2872 51.1573Z" fill="#211D1D" style="fill:color(display-p3 0.1255 0.1137 0.1137)"/><path d="M60.8782 51.1573H59.4535L58.4882 52.1786V53.5471L59.4535 54.5725H60.8782L61.9036 53.5471V52.1786L60.8782 51.1573Z" fill="#211D1D" style="fill:color(display-p3 0.1255 0.1137 0.1137)"/><path d="M41.0342 27.4425L40.013 27.5627L39.7128 27.9445L38.2969 28.1077L34.8643 32.4541L35.0318 33.8701L34.6328 34.3549L34.7313 35.2386L35.8384 35.1101L36.1473 34.7496L37.5632 34.5866L40.9571 30.2444L40.7899 28.8456L41.1501 28.4295L41.0342 27.4425Z" fill="#211D1D" style="fill:color(display-p3 0.1255 0.1137 0.1137)"/><path d="M34.6917 44.4995L35.7171 44.6196L36.0173 45.0014L37.4291 45.1647L40.8617 49.5111L40.6942 50.927L41.0976 51.4118L40.9946 52.2956L39.8876 52.1668L39.5787 51.8066L38.1627 51.6436L34.773 47.3014L34.9363 45.9026L34.5758 45.4865L34.6917 44.4995Z" fill="#211D1D" style="fill:color(display-p3 0.1255 0.1137 0.1137)"/><path d="M35.4389 33.6266L34.701 34.3431L34.6923 34.8282L33.6711 35.8191L33.5897 43.9286L34.5851 44.9498L34.5593 45.5847L35.1816 46.2199L35.9795 45.4475L36.0053 44.9711L37.0265 43.9802L37.0779 35.8966L36.0999 34.8882L36.1299 34.3389L35.4389 33.6266Z" fill="#211D1D" style="fill:color(display-p3 0.1255 0.1137 0.1137)"/><path d="M58.5137 26.379V26.2803L58.046 25.877H50.8248V22.4445H58.0331L59.1099 23.4656V24.8901L59.6163 25.2934H59.6935C59.2858 25.6367 58.9169 26.0229 58.5137 26.379Z" fill="#211D1D" style="fill:color(display-p3 0.1255 0.1137 0.1137)"/><path d="M59.5094 25.2467H60.934L61.9036 26.2722V27.6409L60.934 28.6621H59.5094L58.4882 27.6409V26.2722L59.5094 25.2467Z" fill="#211D1D" style="fill:color(display-p3 0.1255 0.1137 0.1137)"/><path d="M54.7912 45.4899H56.2156L57.1852 46.5156V50.0657L56.2156 51.087H54.7912L53.77 50.0657V46.5156L54.7912 45.4899Z" fill="#211D1D" style="fill:color(display-p3 0.1255 0.1137 0.1137)"/><path d="M60.796 27.4425L61.8173 27.5627L62.122 27.9445L63.5334 28.1077L66.966 32.4541L66.7985 33.8701L67.202 34.3549L67.099 35.2386L65.9919 35.1101L65.683 34.7496L64.2671 34.5866L60.8774 30.2444L61.0407 28.8456L60.6802 28.4295L60.796 27.4425Z" fill="#211D1D" style="fill:color(display-p3 0.1255 0.1137 0.1137)"/><path d="M67.1391 44.4995L66.1179 44.6196L65.8174 45.0014L64.4014 45.1647L60.9733 49.5111L61.1363 50.927L60.7332 51.4118L60.8361 52.2956L61.9429 52.1668L62.2518 51.8066L63.6678 51.6436L67.0616 47.3014L66.8986 45.9026L67.2549 45.4865L67.1391 44.4995Z" fill="#211D1D" style="fill:color(display-p3 0.1255 0.1137 0.1137)"/><path d="M66.3914 33.6266L67.1338 34.3431L67.138 34.8282L68.1592 35.8191L68.2409 43.9286L67.2455 44.9498L67.2713 45.5847L66.6532 46.2199L65.8553 45.4475L65.8253 44.9711L64.8041 43.9802L64.7524 35.8966L65.7307 34.8882L65.7007 34.3389L66.3914 33.6266Z" fill="#211D1D" style="fill:color(display-p3 0.1255 0.1137 0.1137)"/><path d="M30.9603 48.2885H29.5356L28.566 49.3139V50.6824L29.5356 51.7037H30.9603L31.9815 50.6824V49.3139L30.9603 48.2885Z" fill="#211D1D" style="fill:color(display-p3 0.1255 0.1137 0.1137)"/><path d="M30.3757 50.7621L29.6378 51.4828L29.6291 51.9634L28.6082 52.9588L28.5308 59.3176L29.522 60.3386L29.5006 60.9695L30.1226 61.4844L30.9163 60.8366L30.9421 60.3602L31.9634 59.369L32.0192 53.0318L31.0367 52.0235L31.0709 51.4741L30.3757 50.7621Z" fill="#211D1D" style="fill:color(display-p3 0.1255 0.1137 0.1137)"/><path d="M21.8849 44.121L22.0608 45.537L27.0937 49.4285L28.5097 49.2484L28.9987 49.6474L29.8785 49.536L29.741 48.4331L29.3808 48.1285L29.2049 46.7128L24.1762 42.8596L22.7815 43.0355L21.8849 44.121Z" fill="#211D1D" style="fill:color(display-p3 0.1255 0.1137 0.1137)"/><path d="M42.3425 55.0773L42.3167 54.5453L41.6089 53.8501L40.8836 54.5882L40.8878 55.073L40.0728 55.901L39.8924 56.0814V56.0856V56.0898V62.4573V63.1867L39.4548 63.607H32.3494L31.9291 63.1867V61.762L30.9208 60.7579H29.4962L28.5308 61.762V63.1867L29.4962 64.1563H30.9208L31.3798 64.6111V66.0355L32.3494 67.0054H39.4548L40.4589 66.0355V64.6111L40.9136 64.1563H42.3425L43.3079 63.1867V62.6974V56.0814L42.3425 55.0773Z" fill="#211D1D" style="fill:color(display-p3 0.1255 0.1137 0.1137)"/><path d="M70.8365 48.2885H72.2609L73.2308 49.3139V50.6824L72.2609 51.7037H70.8365L69.8153 50.6824V49.3139L70.8365 48.2885Z" fill="#211D1D" style="fill:color(display-p3 0.1255 0.1137 0.1137)"/><path d="M71.4173 50.7621L72.1594 51.4828L72.1681 51.9634L73.1893 52.9588L73.2665 59.3176L72.2753 60.3386L72.2969 60.9695L71.6746 61.4844L70.8809 60.8366L70.8551 60.3602L69.8297 59.369L69.7783 53.0318L70.7608 52.0235L70.7263 51.4741L71.4173 50.7621Z" fill="#211D1D" style="fill:color(display-p3 0.1255 0.1137 0.1137)"/><path d="M79.9111 44.121L79.731 45.537L74.7023 49.4285L73.2864 49.2484L72.7971 49.6474L71.9133 49.536L72.055 48.4331L72.4152 48.1285L72.5912 46.7128L77.6198 42.8596L79.0145 43.0355L79.9111 44.121Z" fill="#211D1D" style="fill:color(display-p3 0.1255 0.1137 0.1137)"/><path d="M59.4535 55.0773L59.4794 54.5453L60.1875 53.8501L60.9124 54.5882L60.904 55.073L61.7235 55.901L61.9036 56.0814V56.0856V56.0898V62.4573V63.1867L62.3413 63.607H69.4467L69.8672 63.1867V61.762L70.871 60.7579H72.2957L73.2653 61.762V63.1867L72.2957 64.1563H70.871L70.4163 64.6111V66.0355L69.4467 67.0054H62.3413L61.3372 66.0355V64.6111L60.8782 64.1563H59.4535L58.4882 63.1867V62.6974V56.0814L59.4535 55.0773Z" fill="#211D1D" style="fill:color(display-p3 0.1255 0.1137 0.1137)"/><path d="M48.9423 66.2984L48.9294 66.2899L48.9465 64.8998L47.9511 63.8828L46.5267 63.8699L45.5097 64.8653L45.4968 66.2512L45.072 66.706L43.6648 66.6931L36.8941 73.3094L36.8812 74.7338L37.8766 75.7121L39.3013 75.7292L46.0719 69.1087L46.0846 67.7185L46.4922 67.2682L47.8481 67.2809L48.9423 66.2984Z" fill="#211D1D" style="fill:color(display-p3 0.1255 0.1137 0.1137)"/><path d="M36.8795 74.7328L36.4331 75.1575H29.3236L28.9072 74.737V73.3126L27.8989 72.3085H26.4745L25.5092 73.3126V74.737L26.4745 75.7024H27.8989L28.3582 76.1616V77.586L29.3236 78.5556H36.4331L37.4373 77.586V76.1616L37.892 75.7024H37.9092L36.8795 74.7328Z" fill="#211D1D" style="fill:color(display-p3 0.1255 0.1137 0.1137)"/><path d="M52.966 66.2984L52.9747 66.2899L52.9618 64.8998L53.9572 63.8828L55.3816 63.8699L56.3944 64.8653L56.4073 66.2512L56.8321 66.706L58.2393 66.6931L65.01 73.3094L65.0271 74.7338L64.0317 75.7121L62.6073 75.7292L55.8366 69.1087L55.8193 67.7185L55.4161 67.2682L54.056 67.2809L52.966 66.2984Z" fill="#211D1D" style="fill:color(display-p3 0.1255 0.1137 0.1137)"/><path d="M65.0271 74.7328L65.4732 75.1575H72.5785L72.9991 74.737V73.3126L74.0029 72.3085H75.4276L76.3972 73.3126V74.737L75.4276 75.7024H74.0029L73.5481 76.1616V77.586L72.5785 78.5556H65.4732L64.4691 77.586V76.1616L64.0101 75.7024H63.9972L65.0271 74.7328Z" fill="#211D1D" style="fill:color(display-p3 0.1255 0.1137 0.1137)"/></svg>