<svg width="101" height="101" viewBox="0 0 101 101" fill="none" xmlns="http://www.w3.org/2000/svg"><path fill-rule="evenodd" clip-rule="evenodd" d="M64.7071 60.0127C65.7469 61.0382 65.8414 62.6432 64.9908 63.7742L64.7071 64.0981L52.9925 75.654C51.8487 76.782 49.9947 76.782 48.8509 75.654C47.8112 74.6281 47.7167 73.0235 48.5674 71.8925L48.8509 71.5686L60.5656 60.0127C61.7093 58.8843 63.5634 58.8843 64.7071 60.0127ZM47.9933 24.5C57.6976 24.5 65.5647 32.2604 65.5647 41.8333C65.5647 51.4062 57.6976 59.1666 47.9933 59.1666C38.2889 59.1666 30.4219 51.4062 30.4219 41.8333C30.4219 32.2604 38.2889 24.5 47.9933 24.5ZM47.9933 30.2778C41.5238 30.2778 36.279 35.4511 36.279 41.8333C36.279 48.2155 41.5238 53.3888 47.9933 53.3888C54.4632 53.3888 59.7076 48.2155 59.7076 41.8333C59.7076 35.4511 54.4632 30.2778 47.9933 30.2778ZM68.4935 24.5C70.111 24.5 71.4219 25.7932 71.4219 27.3889C71.4219 28.9846 70.111 30.2778 68.4935 30.2778C66.876 30.2778 65.5651 28.9846 65.5651 27.3889C65.5651 25.7932 66.876 24.5 68.4935 24.5Z" fill="#211D1D" style="fill:color(display-p3 0.1255 0.1137 0.1137)"/></svg>