<svg width="457" height="250" viewBox="0 0 457 250" fill="none" xmlns="http://www.w3.org/2000/svg"><g><g><path d="M0 16C0 7.16345 7.16344 0 16 0H441C449.837 0 457 7.16345 457 16V234C457 242.837 449.837 250 441 250H16C7.16344 250 0 242.837 0 234V16Z" fill="#9896FF" style="fill:color(display-p3 0.5951 0.5870 1.0000)"></path><rect id="left" width="229" height="250" fill="#BCBBFF" style="fill:color(display-p3 0.7391 0.7337 1.0000)"></rect><g style="transform: translateY(-3.58551px); transform-origin: 229px 186px;" transform-origin="229px 186px"><g clip-path="url(#clip1_2915_1498)" id="1" style="transform: none; transform-origin: 229px 186px;" transform-origin="229px 186px"><g><rect x="165" y="58" width="128" height="256" rx="64" fill="white" style="fill:white"></rect><rect id="Rectangle 22459" x="165" y="58" width="128" height="256" fill="#E2E0FF" style="fill:color(display-p3 0.8863 0.8784 1.0000)"></rect><rect id="Rectangle 22458" x="165" y="58" width="64" height="256" fill="#9896FF" style="fill:color(display-p3 0.5951 0.5870 1.0000)"></rect></g></g></g><g style="transform: translateY(-7.56971px); transform-origin: 165px 250px;" transform-origin="165px 249.99999237060547px"><g id="2" style="transform: none; transform-origin: 165px 250px;" transform-origin="165px 249.99999237060547px"><g clip-path="url(#clip2_2915_1498)"><rect x="101" y="122" width="128" height="256" rx="64" fill="white" style="fill:white"></rect><rect id="Rectangle 22459_2" x="101" y="122" width="128" height="256" fill="#E2E0FF" style="fill:color(display-p3 0.8863 0.8784 1.0000)"></rect><rect id="Rectangle 22458_2" x="101" y="122" width="64" height="256" fill="#9896FF" style="fill:color(display-p3 0.5951 0.5870 1.0000)"></rect></g></g></g><g style="transform: translateY(-8.52715px); transform-origin: 101px 314px;" transform-origin="101px 314px"><g id="4" style="transform: none; transform-origin: 101px 314px;" transform-origin="101px 314px"><g clip-path="url(#clip3_2915_1498)"><rect x="37" y="186" width="128" height="256" rx="64" fill="white" style="fill:white"></rect><rect id="Rectangle 22459_3" x="37" y="186" width="128" height="256" fill="#E2E0FF" style="fill:color(display-p3 0.8863 0.8784 1.0000)"></rect><rect id="Rectangle 22458_3" x="37" y="186" width="64" height="256" fill="#9896FF" style="fill:color(display-p3 0.5951 0.5870 1.0000)"></rect></g></g></g><g style="transform: translateY(-9.25451px); transform-origin: 293px 250px;" transform-origin="292.99999237060547px 249.99999237060547px"><g id="3" style="transform: none; transform-origin: 293px 250px;" transform-origin="292.99999237060547px 249.99999237060547px"><g clip-path="url(#clip4_2915_1498)"><rect x="229" y="122" width="128" height="256" rx="64" fill="white" style="fill:white"></rect><rect id="Rectangle 22459_4" x="229" y="122" width="128" height="256" fill="#E2E0FF" style="fill:color(display-p3 0.8863 0.8784 1.0000)"></rect><rect id="Rectangle 22458_4" x="229" y="122" width="64" height="256" fill="#9896FF" style="fill:color(display-p3 0.5951 0.5870 1.0000)"></rect></g></g></g><g style="transform: translateY(-9.73123px); transform-origin: 357px 314px;" transform-origin="357px 314px"><g id="6" style="transform: none; transform-origin: 357px 314px;" transform-origin="357px 314px"><g clip-path="url(#clip5_2915_1498)"><rect x="293" y="186" width="128" height="256" rx="64" fill="white" style="fill:white"></rect><rect id="Rectangle 22459_5" x="293" y="186" width="128" height="256" fill="#E2E0FF" style="fill:color(display-p3 0.8863 0.8784 1.0000)"></rect><rect id="Rectangle 22458_5" x="293" y="186" width="64" height="256" fill="#9896FF" style="fill:color(display-p3 0.5951 0.5870 1.0000)"></rect></g></g></g><g style="transform: translateY(-9.96719px); transform-origin: 229px 314px;" transform-origin="229px 314px"><g id="5" style="transform: none; transform-origin: 229px 314px;" transform-origin="229px 314px"><g clip-path="url(#clip6_2915_1498)"><rect x="165" y="186" width="128" height="256" rx="64" fill="white" style="fill:white"></rect><rect id="Rectangle 22459_6" x="165" y="186" width="128" height="256" fill="#E2E0FF" style="fill:color(display-p3 0.8863 0.8784 1.0000)"></rect><rect id="Rectangle 22458_6" x="165" y="186" width="64" height="256" fill="#9896FF" style="fill:color(display-p3 0.5951 0.5870 1.0000)"></rect></g></g></g></g></g><defs><clipPath id="clip0_2915_1498"><path d="M0 16C0 7.16345 7.16344 0 16 0H441C449.837 0 457 7.16345 457 16V234C457 242.837 449.837 250 441 250H16C7.16344 250 0 242.837 0 234V16Z" fill="white" style="fill:white"></path></clipPath><clipPath id="clip1_2915_1498"><rect x="165" y="58" width="128" height="256" rx="64" fill="white" style="fill:white"></rect></clipPath><clipPath id="clip2_2915_1498"><rect x="101" y="122" width="128" height="256" rx="64" fill="white" style="fill:white"></rect></clipPath><clipPath id="clip3_2915_1498"><rect x="37" y="186" width="128" height="256" rx="64" fill="white" style="fill:white"></rect></clipPath><clipPath id="clip4_2915_1498"><rect x="229" y="122" width="128" height="256" rx="64" fill="white" style="fill:white"></rect></clipPath><clipPath id="clip5_2915_1498"><rect x="293" y="186" width="128" height="256" rx="64" fill="white" style="fill:white"></rect></clipPath><clipPath id="clip6_2915_1498"><rect x="165" y="186" width="128" height="256" rx="64" fill="white" style="fill:white"></rect></clipPath></defs></svg>